<svg xmlns="http://www.w3.org/2000/svg" version="1.1" viewBox="0 0 1920 1080" width="1920" height="1080">
<!--ITEM 1--><g><defs><clipPath id="clip-path-id-viewbox-item-1"><rect x="0.0" y="0.0" width="1452.997" height="725.209"/></clipPath></defs><g transform="translate(400.0 299.0) rotate(0.0 730.0 364.5) scale(1.0048196933648177 1.0052274585671166)"><g clip-path="url(#clip-path-id-viewbox-item-1)" transform="translate(-0.0 -0.0)"><g>
    <path d="M1404.84,93.745,1273.231,656.87a66.415,66.415,0,0,1-64.672,51.3H85.531a61.944,61.944,0,0,1-59.776-78.192L168.739,103.936a86.1,86.1,0,0,1,83.082-63.513H1362.543A43.437,43.437,0,0,1,1404.84,93.745Zm2.484-70.36H239.919A90.49,90.49,0,0,0,152.6,90.139L2.316,643.026a65.105,65.105,0,0,0,62.826,82.182H1245.481a69.8,69.8,0,0,0,67.973-53.918L1451.779,79.428A45.653,45.653,0,0,0,1407.324,23.385Zm-2.484,70.36L1273.231,656.87a66.415,66.415,0,0,1-64.672,51.3H85.531a61.944,61.944,0,0,1-59.776-78.192L168.739,103.936a86.1,86.1,0,0,1,83.082-63.513H1362.543A43.437,43.437,0,0,1,1404.84,93.745Z" style="         fill: #2b2929;       "/>
    <path d="M25.7,629.978,165.318,103.936c9.95-37.492,43.187-63.513,81.123-63.513H1330.989c27.324,0,47.518,26.073,41.3,53.322L1243.781,656.87c-6.857,30.047-33.018,51.3-63.147,51.3H84.07C44.209,708.17,15.248,669.371,25.7,629.978Z" style="         fill: #ffe3c3;       "/>
    <path d="M1384.346,291.834c-5.431,88.939-24.272,126.621-31.546,185.168-10.287,82.787-118.447,128.394-212.859,149.38-167.763,37.291-330.336-52.031-363.118-199.506s76.643-297.258,244.406-334.549S1393.555,141.04,1384.346,291.834Z" style="         fill: #2b2929;       "/>
    <circle cx="834.285" cy="525.302" r="72.366" transform="translate(-56.775 947.187) rotate(-57.532)" style="         fill: #f8b5a4;       "/>
    <path d="M763.643,541.005a72.366,72.366,0,1,1,141.284-31.4c-14.4-25.648-40.548-41.82-67.745-41.116C801.214,469.415,768.492,499.73,763.643,541.005Z" style="         fill: #dda094;       "/>
    <g id="Rectangle-i1">
      <path d="M977.4,234.278,1120.8,202.4c103.951-23.106,206.95,42.43,230.056,146.38l4.981,22.407a169.858,169.858,0,0,1-128.954,202.669L1038.665,615.7A169.712,169.712,0,0,1,836,486.741l-4.98-22.407C807.909,360.384,873.446,257.385,977.4,234.278Z" style="         fill: #f8b5a4;                fill-rule: evenodd;       "/>
    </g>
    <g id="Oval-i1">
      <path d="M1263.514,708.134q18.842-50.046,37.682-100.092,16.486-48.869,32.972-97.738c16.807-30.671,30.764-71.121,19.718-111.245-25.926-94.174-176.05-136.962-289.458-111.754C920.878,319.214,826.584,444.4,853.816,566.91c7.72,34.728,22.947,65.832,44.481,91.758,17.05,20.529,45.993,58.032,90.015,63.813,12.689,1.667,12.739-1.09,44.4-2.572,40.3-1.886,68.475,1.256,83.607,2.356C1146.571,724.463,1193.344,723.486,1263.514,708.134Z" style="         fill: #f8b5a4;                fill-rule: evenodd;       "/>
    </g>
    <g id="Oval-2-i1" data-name="Oval">
      <path d="M853.816,566.91c7.719,34.727,22.946,65.83,44.479,91.756,13.91,16.749,32.359,39.862,66.031,53.006,28.4,11.086,54.129,9.976,68.387,8.237a41.164,41.164,0,0,1,9.421-3.532c8.835-2.116,14.568-.31,14.875-1.159.985-2.718-58.846-20.052-95.243-43.3A376.063,376.063,0,0,1,853.816,566.91Z" style="         fill: #dda094;                fill-rule: evenodd;       "/>
    </g>
    <g id="Path-11-i1">
      <path d="M1098.031,545.3a2.527,2.527,0,0,1-.639-.084l-21.542-5.682a15.383,15.383,0,0,1-11.306-16.718l2.715-21.843a2.5,2.5,0,0,1,4.962.617l-2.715,21.844a10.366,10.366,0,0,0,7.619,11.266l21.543,5.682a2.5,2.5,0,0,1-.637,4.918Z" style="         fill: #403838;       "/>
    </g>
    <path d="M1065.209,266.407c7.787-16.949-1.47-46.477-18.518-80.143C1004.3,216.411,938.983,271.937,890.648,361.55c-21.344,39.571-55.741,76.491-65,108.245C825.487,470.36,997.182,414.484,1065.209,266.407Z" style="         fill: #dda094;                fill-rule: evenodd;       "/>
    <path d="M1223.718,140.926c-72.8-24.1-153.2-5.317-209.082,46.956-66.031-14.4-135.4,8.364-178.795,60.183C784.5,309.374,779.845,399,825.179,466.9A430.1,430.1,0,0,0,964.574,346.958,428.183,428.183,0,0,0,1024.04,237.5a493.664,493.664,0,0,0,133.492,78.327,495.444,495.444,0,0,0,209.256,33.03C1370.047,254.857,1311.172,169.874,1223.718,140.926Z" style="         fill: #2b2929;       "/>
    <path d="M824.553,577.409a2.485,2.485,0,0,1-1.2-.307c-6.883-3.773-23.563-14.9-29.776-36.67-9.215-32.3,13.705-57.818,14.686-58.889a2.5,2.5,0,0,1,3.687,3.377c-.9.986-22.022,24.5-13.565,54.141,5.7,19.96,21.039,30.186,27.371,33.656a2.5,2.5,0,0,1-1.2,4.692Z" style="         fill: #403838;       "/>
    <path d="M1121.994,345.68a14.5,14.5,0,0,1-4.621-28.247,231.576,231.576,0,0,1,129.59-5.265,14.5,14.5,0,1,1-6.984,28.146,202.614,202.614,0,0,0-113.361,4.6A14.47,14.47,0,0,1,1121.994,345.68Z" style="         fill: #2b2929;       "/>
    <path d="M888.912,421.531a14.5,14.5,0,0,1-8.761-26.063,231.565,231.565,0,0,1,97.528-43.039,14.5,14.5,0,1,1,5.288,28.513,202.578,202.578,0,0,0-85.316,37.651A14.443,14.443,0,0,1,888.912,421.531Z" style="         fill: #2b2929;       "/>
    <path d="M1062.449,593.337l92.311-37.871c3.573,22.422-7.132,44.419-26.037,54.44C1106.856,621.5,1078.175,614.862,1062.449,593.337Z" style="         fill-rule: evenodd;                fill: #fff;       "/>
    <ellipse cx="953.152" cy="95.516" rx="29.249" ry="59.354" transform="translate(435.72 901.671) rotate(-63.028)" style="         fill: #2b2929;       "/>
    <ellipse cx="1030.897" cy="55.673" rx="57.772" ry="27.696" transform="translate(663.542 1020.504) rotate(-72.247)" style="         fill: #2b2929;       "/>
    <g>
      <path d="M928.319,434.1C889.427,448.547,864.19,476,870.6,498.786c3.586,12.745,16.393,21.562,34.1,25.476,27.192-2.318,48.481-23.267,48.481-48.778C953.182,458.073,943.259,442.8,928.319,434.1Z" style="         fill: #2b2929;                fill-rule: evenodd;       "/>
      <path d="M1035.694,452.33c-7.053-25.065-49.728-34.985-95.317-22.156q-6.217,1.751-12.058,3.93c14.94,8.691,24.863,23.969,24.863,41.38,0,25.511-21.289,46.46-48.481,48.778,17.116,3.784,38.809,2.986,61.218-3.32C1011.507,508.114,1042.747,477.4,1035.694,452.33Z" style="         fill-rule: evenodd;                fill: #fff;       "/>
    </g>
    <g>
      <path d="M1170.319,357.1c-38.892,14.443-64.129,41.9-57.717,64.682,3.586,12.745,16.393,21.562,34.1,25.476,27.192-2.318,48.481-23.267,48.481-48.778C1195.182,381.073,1185.259,365.8,1170.319,357.1Z" style="         fill: #2b2929;                fill-rule: evenodd;       "/>
      <path d="M1277.694,375.33c-7.053-25.065-49.728-34.985-95.317-22.156q-6.217,1.751-12.058,3.93c14.94,8.691,24.863,23.969,24.863,41.38,0,25.511-21.289,46.46-48.481,48.778,17.116,3.784,38.809,2.986,61.218-3.32C1253.507,431.114,1284.747,400.4,1277.694,375.33Z" style="         fill-rule: evenodd;                fill: #fff;       "/>
    </g>
    <path d="M1407.324,23.385h-18.145l-39.49,167.085a30.637,30.637,0,0,1-16.413,20.5l-5.591,2.719a63.116,63.116,0,0,0-33.649,41.466l-54.729,218.912a27.588,27.588,0,0,0,8.445,27.318l7.426,6.6a36.037,36.037,0,0,1,11.14,35.231L1240.29,653.337a71.214,71.214,0,0,1-69.3,54.833h-390.3l-9.664,17.039h474.461a69.806,69.806,0,0,0,67.972-53.919L1451.779,79.427A45.653,45.653,0,0,0,1407.324,23.385Z" style="         fill: #2b2929;                fill-rule: evenodd;       "/>
    <circle cx="1312.084" cy="414.053" r="10.598" fill="#000000"/>
    <rect x="1319.194" y="298.278" width="21.502" height="91.849" rx="9.13" transform="translate(111.222 -289.787) rotate(12.973)" fill="#000000"/>
    <polygon points="1427.168 184.733 1421.53 208.858 1359.288 149.858 1365.562 123.221 1427.168 184.733" style="         fill-rule: evenodd;                fill: #3d3939;       "/>
    <path d="M1308.5,228.08l88.437,86.022,16.642-71.208-61.992-60.438-.459,2.846a28.4,28.4,0,0,1-16.189,21.393,67.363,67.363,0,0,0-18.515,12.384A66.251,66.251,0,0,0,1308.5,228.08Z" style="         fill-rule: evenodd;                fill: #3d3939;       "/>
  </g>
</g></g></g><!--ITEM 2--><g><defs><clipPath id="clip-path-id-viewbox-item-2"><rect x="0.0" y="0.0" width="632.875" height="281.311"/></clipPath></defs><g transform="translate(62.0 743.0) rotate(0.0 320.5 142.5) scale(1.0128382381986964 1.013113600250257)"><g clip-path="url(#clip-path-id-viewbox-item-2)" transform="translate(-0.0 -0.0)"><g>
    <polygon points="0 65.311 78 281.311 632.875 281.311 614 15.311 85 15.311 0 65.311" style="         fill: #a65f35;       "/>
    <polygon points="99 66.311 91.5 281.035 78 281.311 0 65.311 99 66.311" style="         fill: #bf7351;       "/>
    <polygon points="99 66.311 124 28.311 614 15.311 107.609 0 0 65.311 99 66.311" style="         fill: #2b2929;       "/>
    <polygon points="124 28.311 99 66.311 91.512 281.311 101.884 281.311 124 28.311" style="         fill: #9a552d;       "/>
    <path d="M97.267,117.074H18.331a1,1,0,0,1,0-2h78.5l21.435-23.438a1,1,0,0,1,.738-.325H563a1,1,0,0,1,0,2H119.44L98.005,116.748A1,1,0,0,1,97.267,117.074Z" style="         fill: #403838;       "/>
    <path d="M95,167.893H36.683a1,1,0,1,1,0-2H94.647l17.893-14.448a1,1,0,0,1,.628-.222H408a1,1,0,0,1,0,2H113.522L95.628,167.671A1,1,0,0,1,95,167.893Z" style="         fill: #403838;       "/>
    <path d="M626,214.311H319a1,1,0,0,1,0-2H626a1,1,0,0,1,0,2Z" style="         fill: #403838;       "/>
    <ellipse cx="188.5" cy="124.311" rx="10.5" ry="5" style="         fill: #ba6a43;       "/>
    <ellipse cx="275.5" cy="130.311" rx="5" ry="10.5" transform="translate(37.453 320.612) rotate(-63.954)" style="         fill: #9b5837;       "/>
    <ellipse cx="242" cy="188.311" rx="7" ry="5" transform="translate(-64.601 192.832) rotate(-38.733)" style="         fill: #9a552d;       "/>
    <circle cx="560" cy="154.311" r="10" style="         fill: #ba6a43;       "/>
    <ellipse cx="383.972" cy="40.715" rx="14.104" ry="8.812" transform="translate(14.448 152.715) rotate(-22.915)" style="         fill: #ba6a43;       "/>
    <path d="M93.586,224.492H57.121a1,1,0,0,1,0-2H93.586a1,1,0,0,1,0,2Z" style="         fill: #403838;       "/>
    <path d="M92.1,265a1,1,0,0,1-.648-1.761l12.208-10.369a.991.991,0,0,1,.647-.239H214a1,1,0,0,1,0,2H104.67L92.743,264.758A1,1,0,0,1,92.1,265Z" style="         fill: #403838;       "/>
    <ellipse cx="50" cy="132.811" rx="3.5" ry="6" transform="translate(-91.16 118.23) rotate(-63.472)" style="         fill: #ce805d;       "/>
    <ellipse cx="295.5" cy="241.811" rx="4.5" ry="6.5" transform="translate(-39.678 424.7) rotate(-67.913)" style="         fill: #cc7e5e;       "/>
    <ellipse cx="83.5" cy="204.311" rx="5.5" ry="2" style="         fill: #cc7e5e;       "/>
  </g>
</g></g></g><!--ITEM 3--><g><defs><clipPath id="clip-path-id-viewbox-item-3"><rect x="0.0" y="0.0" width="471.51" height="384.929"/></clipPath></defs><g transform="translate(737.0 120.0) rotate(0.0 237.5 193.5) scale(1.0074017518186253 1.0053802129743408)"><g clip-path="url(#clip-path-id-viewbox-item-3)" transform="translate(-0.0 -0.0)"><g>
    <path d="M471.471,201.678c-9.07-22.932-27.056-34.391-33.565-42.547C427.776,146.439,414.5,130.786,398,113.686,375.144,90,363.384,78.014,347.1,71.236c-21.437-8.924-41.1-7.685-59.1-6.55a186.83,186.83,0,0,0-55,12C216.8,63.1,194.122,46.229,168.881,34.4c0,0-22.764-5.508-38.3-5.3a3.314,3.314,0,0,0-3.23,2.865l-.009.063a3.324,3.324,0,0,0,2.913,3.758c5.537.654,14.906,2.812,26.131,5.806h0A43.485,43.485,0,0,1,171,48.686c5.162,3.66,22.076,14.682,45,30a128.919,128.919,0,0,1-37.144-.512c-32.926-5.291-55.571-22.225-66.266-31.52L54.279,34.92a2.26,2.26,0,0,0-1.374.153l-.081.036a2.264,2.264,0,0,0,.553,4.3,131.273,131.273,0,0,1,39.58,13.117A96.281,96.281,0,0,1,62.59,60.671a96.649,96.649,0,0,1-37.837-3.864,3.789,3.789,0,1,0-1.966,7.313,231.472,231.472,0,0,0,36.256,5.5,231.839,231.839,0,0,0,56.308-2.863c10.811,9.319,36.681,29,75.2,34.62a146.675,146.675,0,0,0,59.881-3.769,54.3,54.3,0,0,1-12.46,17.025c-16.093,14.7-36.354,14.793-42.872,14.491a2,2,0,0,0-1.514.587l-.035.036a2,2,0,0,0,1.226,3.4,87.434,87.434,0,0,0,50.372-10.488,86.676,86.676,0,0,0,32.08-31.391,85.317,85.317,0,0,1,20.1-4.087,86.4,86.4,0,0,1,32.158,3.574c-20.519,12.3-53.828,36.588-76.245,78.815a191.925,191.925,0,0,0-14.3,34.862L188.88,237.5,152.1,233.34a21.083,21.083,0,0,0-17.837,6.618l-26.724,28.833-12.84,9.461a14.851,14.851,0,0,0-5.509,8.017l-7.26,26.4a3.471,3.471,0,0,0,6.676,1.9l8.206-27.9,33.969-16.984,13.317-13.922a12.448,12.448,0,0,1,14.565-2.53l20.389,10.194,42.014-15.2,3.871-5.657a2.592,2.592,0,0,1,4.664,2.047L227.8,271.4a9.893,9.893,0,0,1-7.517,8.947l-28.693,7.027a12.415,12.415,0,0,0-9.322,10.2l-.542,22.173a129.972,129.972,0,0,1-26.32,28.163,128.541,128.541,0,0,1-14.578,9.985,2.371,2.371,0,0,0-.8,3.308l.028.044a2.379,2.379,0,0,0,3.535.566l45.286-37.6,3.083-14.384a17.636,17.636,0,0,1,12.82-13.378l31-8.037a11.207,11.207,0,0,0,8.158-8.557l11.092-53.081a167.932,167.932,0,0,1,16.984-43.8c24.237-43.193,61.587-64.215,79.378-72.693a269.969,269.969,0,0,1,62.933,86.47,12.709,12.709,0,0,0-2.991,4.926c-.042.134,40.062.26,60.176.1Z" style="         fill: #493d3d;       "/>
    <path d="M131,266.686a28.764,28.764,0,0,1,51-12c11.521-2.394,18.587-7.01,23-11,5.48-4.953,8.479-10.4,16-13a25.571,25.571,0,0,1,12-1l-3.573,13.235h0a4.013,4.013,0,0,0-5.595,1.235L221,248.686l-42,15a141.791,141.791,0,0,1-12.744-6.518,22.818,22.818,0,0,0-28.47,5.048,76.052,76.052,0,0,1-7.183,7.555Z" style="         fill: #302a2a;       "/>
    <path d="M127.354,31.969c0,.008,0,.018-.009.063a3.324,3.324,0,0,0,2.913,3.758c5.537.654,14.906,2.812,26.131,5.806h0q7.172,3.2,14.61,7.09a256.964,256.964,0,0,1,55,39c-24.056,2.693-42.412-.452-55-4-18.574-5.234-34.748-14.211-65-31,0,0-20.624-11.445-51.721-17.766a2.432,2.432,0,0,0-.366-.044,2.279,2.279,0,0,0-1.008.2l-.081.036a2.264,2.264,0,0,0,.553,4.3,190.512,190.512,0,0,1,20.782,5.133c5.7.512,13.62,3.2,22.841,13.143-17.133,8.636-29.072,8.73-37,7-8.443-1.842-33.126-7.227-35.247-7.879a3.789,3.789,0,1,0-1.966,7.313,231.472,231.472,0,0,0,36.256,5.5,231.839,231.839,0,0,0,56.308-2.863c10.811,9.319,36.681,29,75.2,34.62a146.675,146.675,0,0,0,59.881-3.769,54.3,54.3,0,0,1-12.46,17.025c-16.093,14.7-36.354,14.793-42.872,14.491a2,2,0,0,0-1.514.587l-.035.036a2,2,0,0,0,1.226,3.4,87.434,87.434,0,0,0,50.372-10.488,86.676,86.676,0,0,0,32.08-31.391,73.936,73.936,0,0,1,20.1-4.087c24-1.448,42.224,9.417,49.671,14.508-33.06,11.439-50.337,28.011-60,41-24.019,32.289-31.97,84.09-31.97,84.091a167.932,167.932,0,0,1,16.984-43.8c24.237-43.193,61.587-64.215,79.379-72.693a269.983,269.983,0,0,1,62.932,86.47,12.208,12.208,0,0,0-2.876,4.926c-.031.1,19.252.287,28.921.274l-.131-.648A353.77,353.77,0,0,0,390,132.686c-22.091-23.589-33.154-35.344-49.859-42.6-46.484-20.2-75.216,14.4-111.141-8.395-5.127-3.253-20.805-14.261-47-31a118.562,118.562,0,0,0-14-8C149.089,33.686,127.852,30.358,127.354,31.969Z" style="         fill: #2b2929;       "/>
    <path d="M152.245,375.906a10.338,10.338,0,0,0,10.6-15.261c-.93-1.67-3.035-4.363-4.573-5.265a10.342,10.342,0,0,0-15.747-13.151,9.943,9.943,0,0,0-17.507,9.421l.388.7c-5.912,2.636-8.2,9.395-5.78,14.159,1.91,3.761,6.586,5.949,11.38,5.037-.226,2.061.93,5.6,2.016,7.549a10.35,10.35,0,0,0,19.223-3.185Z" style="         fill: #f75c84;       "/>
    <path d="M152.245,375.906a10.373,10.373,0,0,0,4.338-.252,10.876,10.876,0,0,0,2.261-.93A11.209,11.209,0,0,0,164,369.686c1.842-4.257-.885-8.623-1.155-9.041A16.008,16.008,0,0,1,155,367.686a15.716,15.716,0,0,1-8,1,10.837,10.837,0,0,1-4,9c-4.488,3.43-9.692,1.516-9.978,1.405A12.012,12.012,0,0,0,138,383.686c4.057,1.942,10.289,1.844,13-2A8.38,8.38,0,0,0,152.245,375.906Z" style="         fill: #dd527a;       "/>
    <path d="M138.948,362.585a10.281,10.281,0,0,0-.907-5.481c.252-.115.5-.232.749-.369a10.338,10.338,0,0,0,1.965-1.433,10.27,10.27,0,0,0,3.532,3.448,10.379,10.379,0,0,0-1.44,3.689A10.3,10.3,0,0,0,138.948,362.585Z" style="         fill: #dd527a;       "/>
    <circle cx="141.578" cy="359.283" r="5.175" style="         fill: #ffe3c3;       "/>
    <path d="M138.7,44.354a10.338,10.338,0,0,0,12.768-13.5,17.046,17.046,0,0,0-3.733-5.891A10.341,10.341,0,0,0,134.132,9.6,10.151,10.151,0,0,0,121.01,4a10.128,10.128,0,0,0-5.6,12.3l.279.746c-6.241,1.721-9.515,8.06-7.836,13.133,1.325,4,5.619,6.869,10.5,6.685-.533,2.005.08,5.676.862,7.766a10.35,10.35,0,0,0,19.483-.269Z" style="         fill: #f75c84;       "/>
    <path d="M138.7,44.354a10.341,10.341,0,0,0,4.327.4,10.772,10.772,0,0,0,2.375-.58c1.123-.407,4.165-1.508,5.853-4.208,2.459-3.934.417-8.659.213-9.113a16.015,16.015,0,0,1-8.812,5.787,15.725,15.725,0,0,1-8.06-.21,10.833,10.833,0,0,1-5.3,8.3c-4.951,2.718-9.809.046-10.076-.107a12.016,12.016,0,0,0,4.233,5.29c3.721,2.527,9.9,3.364,13.153-.03A8.377,8.377,0,0,0,138.7,44.354Z" style="         fill: #dd527a;       "/>
    <circle cx="130.578" cy="26.283" r="5.175" style="         fill: #ffe3c3;       "/>
    <g>
      <path d="M188.546,263.642a8.231,8.231,0,0,0-6.5-13.287,13.569,13.569,0,0,0-5.434,1.139,8.234,8.234,0,0,0-15.249,5.853,7.917,7.917,0,0,0-.234,15.827h.633c-.458,5.133,3.356,9.343,7.607,9.507a8.352,8.352,0,0,0,7.913-5.961,12.672,12.672,0,0,0,6.031,1.524,8.24,8.24,0,0,0,5.237-14.6Zm-14.418,4.083a8.18,8.18,0,0,0-4.163-1.493c.018-.22.034-.44.034-.665a8.222,8.222,0,0,0-.235-1.921,8.192,8.192,0,0,0,3.767-1.119,8.268,8.268,0,0,0,2.007,2.43A8.2,8.2,0,0,0,174.128,267.725Z" style="         fill: #ffadc7;       "/>
      <circle cx="172.851" cy="264.617" r="4.12" style="         fill: #ffe3c3;       "/>
    </g>
    <g>
      <path d="M67.2,44.015a10.5,10.5,0,0,0,15.57-10.662c-.281-1.921-1.308-5.237-2.442-6.649a10.5,10.5,0,0,0-10.2-18.166A10.1,10.1,0,0,0,50.11,11.165l.117.8c-6.565.37-11.174,5.96-10.6,11.356.456,4.26,4.1,8.024,8.985,8.888-.959,1.875-1.138,5.651-.81,7.894a10.511,10.511,0,0,0,19.4,3.912ZM59.388,26.572A10.439,10.439,0,0,0,60.5,21.041c.281-.018.562-.039.845-.08a10.469,10.469,0,0,0,2.382-.651,10.445,10.445,0,0,0,2.108,4.548,10.557,10.557,0,0,0-2.7,2.982A10.454,10.454,0,0,0,59.388,26.572Z" style="         fill: #ffadc7;       "/>
      <path d="M67.2,44.015a10.5,10.5,0,0,0,15.57-10.663c-.281-1.92-1.308-5.236-2.442-6.647.062-.112.135-.222.174-.21.31.1.241,8.533-4.506,11.191-3.021,1.692-7.407.748-11-2a13.246,13.246,0,0,1-6,5A13.935,13.935,0,0,1,47.806,40.1a11.254,11.254,0,0,0,.7,3.079A10.052,10.052,0,0,0,52,47.686a10.807,10.807,0,0,0,7,2,9.264,9.264,0,0,0,4-1A9.4,9.4,0,0,0,67.2,44.015ZM59.388,26.572A10.439,10.439,0,0,0,60.5,21.041c.281-.018.562-.039.845-.08a10.469,10.469,0,0,0,2.382-.651,10.445,10.445,0,0,0,2.108,4.548,10.557,10.557,0,0,0-2.7,2.982A10.454,10.454,0,0,0,59.388,26.572Z" style="         fill: #ea94b3;       "/>
      <circle cx="63.075" cy="24.386" r="5.256" style="         fill: #ffe3c3;       "/>
    </g>
    <g>
      <path d="M209.584,142.433a5.6,5.6,0,0,0,4.287-.409c3.106-1.731,1.2-5.07-1-9.03a16.734,16.734,0,0,0-3.413-4.295,8.747,8.747,0,0,0-.573-7.943c-2.208-3.96-6.515-5.767-9.621-4.036a5.151,5.151,0,0,0-1.2.935c-2.287-3.862-6.576-5.46-9.413-3.7-2.641,1.642-3.355,5.783-1.5,9.513l.307.551c-3.726,1.555-4.749,6.474-2.8,10.236a8.34,8.34,0,0,0,7.907,4.619,15.448,15.448,0,0,0,1.885,5.828c2.207,3.961,6.515,5.768,9.62,4.036C205.817,147.768,209.443,144.6,209.584,142.433Zm-12.411-9.718a9.655,9.655,0,0,0-1-4.191,4.664,4.664,0,0,0,1.667-1.159,9.852,9.852,0,0,0,2.591,2.853,7.116,7.116,0,0,0-.686,2.671A6.037,6.037,0,0,0,197.173,132.715Z" style="         fill: #f75c84;       "/>
      <path d="M209.584,142.433a5.6,5.6,0,0,0,4.287-.409c3.106-1.731,1.2-5.07-1-9.03a16.734,16.734,0,0,0-3.413-4.295c0-.09.012-.186.039-.185.245.017,3.035,5.912,1.17,8.7-1.091,1.634-3.56,1.874-6.11.893.071,2.478-.225,5.5-2.1,6.808-2.891,2.03-7.874-1.381-8.009-.213-.1.864,4.521,6.868,9.62,4.036C205.819,147.77,209.443,144.6,209.584,142.433Zm-12.411-9.718a9.655,9.655,0,0,0-1-4.191,4.664,4.664,0,0,0,1.667-1.159,9.852,9.852,0,0,0,2.591,2.853,7.116,7.116,0,0,0-.686,2.671A6.037,6.037,0,0,0,197.173,132.715Z" style="         fill: #dd527a;       "/>
      <ellipse cx="198.676" cy="130.421" rx="3.219" ry="4.105" transform="translate(-38.361 113.232) rotate(-29.135)" style="         fill: #ffb5b6;       "/>
    </g>
    <g>
      <path d="M35.077,54.573a8.527,8.527,0,0,0-9.8-11.777,14.037,14.037,0,0,0-5.189,2.479A8.528,8.528,0,0,0,6.172,54.906,8.372,8.372,0,0,0,.3,65.1a8.353,8.353,0,0,0,9.52,5.79l.638-.156c.8,5.279,5.669,8.581,9.988,7.7a8.654,8.654,0,0,0,6.5-7.94,13.136,13.136,0,0,0,6.444.054,8.536,8.536,0,0,0,1.688-15.98ZM21.568,62.219a8.487,8.487,0,0,0-4.556-.483c-.037-.225-.074-.451-.129-.676a8.5,8.5,0,0,0-.708-1.877,8.477,8.477,0,0,0,3.517-2.05,8.591,8.591,0,0,0,2.616,1.955A8.486,8.486,0,0,0,21.568,62.219Z" style="         fill: #ffadc7;       "/>
      <circle cx="19.424" cy="59.007" r="4.268" style="         fill: #ffe3c3;       "/>
    </g>
    <g>
      <path d="M178.558,60.4a18.993,18.993,0,0,0,2.809,5.865c3.3,4.753,7.8,7.345,10.035,5.789A4.823,4.823,0,0,0,193.248,69c2.55,2.2,5.152,3.093,6.691,2.024,2.239-1.556,1.377-6.671-1.926-11.424a21.6,21.6,0,0,0-1.51-1.927c2.106-1.7,1.07-6.861-2.108-11.267-2.959-4.1-7.025-6.508-9.263-5.344l-.312.217c-3.5-5.519-8.432-8.612-10.643-7.331-1.745,1.012-1.641,4.662.433,8.932a4.907,4.907,0,0,0-4.074.47c-2.239,1.556-1.376,6.671,1.927,11.424A16.917,16.917,0,0,0,178.558,60.4Zm4.13-9.195a3.886,3.886,0,0,0,3.133.137c.15.236.3.471.465.706a21.89,21.89,0,0,0,1.51,1.927,3.431,3.431,0,0,0-1.041,2.456A12.533,12.533,0,0,0,184,54.576,16.926,16.926,0,0,0,182.688,51.2Z" style="         fill: #e7a5c0;       "/>
      <path d="M178.558,60.4a18.993,18.993,0,0,0,2.809,5.865c3.3,4.753,7.8,7.345,10.035,5.789A4.823,4.823,0,0,0,193.248,69c1.855,1.6,3.739,2.51,5.22,2.474a2.839,2.839,0,0,0,1.471-.45c.466-.309,1.963-1.3,1.4-4.459a18.73,18.73,0,0,0-3.325-6.965c.957,2.988.6,5.314-.93,6.058s-4-.208-6.433-2.479c.48,4.637-2.11,6.33-5.489,4.476C181.642,65.728,178.773,60.774,178.558,60.4Zm4.13-9.195a3.886,3.886,0,0,0,3.133.137c.15.236.3.471.465.706a21.89,21.89,0,0,0,1.51,1.927,3.431,3.431,0,0,0-1.041,2.456A12.533,12.533,0,0,0,184,54.576,16.926,16.926,0,0,0,182.688,51.2Z" style="         fill: #ea94b3;       "/>
      <ellipse cx="185.573" cy="54.013" rx="2.468" ry="5.24" transform="translate(2.357 115.549) rotate(-34.794)" style="         fill: #ffe3c3;       "/>
    </g>
    <g>
      <path d="M73.875,292.886a11.679,11.679,0,0,0,14.818,14.866c2.044-.7,5.462-2.492,6.776-4.018a11.681,11.681,0,0,0,17.8-14.842,11.232,11.232,0,0,0-6.931-21.361l-.851.29c-1.736-7.1-8.784-11.011-14.568-9.286-4.566,1.363-7.942,6.117-7.9,11.629-2.245-.668-6.412-.1-8.8.715a11.691,11.691,0,0,0-.346,22.007ZM91.368,280.8a11.606,11.606,0,0,0,6.274.1c.077.3.157.606.259.908a11.732,11.732,0,0,0,1.2,2.473,11.6,11.6,0,0,0-4.546,3.228,11.73,11.73,0,0,0-3.808-2.346A11.647,11.647,0,0,0,91.368,280.8Z" style="         fill: #e7a5c0;       "/>
      <path d="M73.876,292.886a11.678,11.678,0,0,0,14.817,14.866c2.044-.7,5.462-2.492,6.776-4.018a11.725,11.725,0,0,0,8.246,3.094,12.286,12.286,0,0,0,3.454-.624c1.257-.415,5.3-1.746,7.246-5.845a11.272,11.272,0,0,0,.047-8.994,10.963,10.963,0,0,1-18.586,4.85c-3.578,6.03-10.542,8.3-15.631,5.97C74.943,299.756,73.944,293.372,73.876,292.886ZM91.368,280.8a11.606,11.606,0,0,0,6.274.1c.077.3.157.606.259.908a11.732,11.732,0,0,0,1.2,2.473,11.6,11.6,0,0,0-4.546,3.228,11.73,11.73,0,0,0-3.808-2.346A11.647,11.647,0,0,0,91.368,280.8Z" style="         fill: #ea94b3;       "/>
      <circle cx="94.506" cy="284.391" r="5.846" style="         fill: #ffe3c3;       "/>
    </g>
  </g>
</g></g></g><!--ITEM 4--><g><defs><clipPath id="clip-path-id-viewbox-item-4"><rect x="0.0" y="0.0" width="1035.0" height="683.887"/></clipPath></defs><g transform="translate(74.0 343.0) rotate(0.0 521.5 344.0) scale(1.007729468599034 1.0060141514606946)"><g clip-path="url(#clip-path-id-viewbox-item-4)" transform="translate(-0.0 -0.0)"><g>
    <g>
      <path d="M518.471,212.769l41.015-10.322,5.187,2.608a116.029,116.029,0,0,0,30.378,10.314l6.344,1.211a35.369,35.369,0,0,0,26.506-5.486l6.906-4.692,15.691.608a13.109,13.109,0,0,0,8.691-2.811A61.753,61.753,0,0,0,675.3,185.612c2.486-4.535,2.988-7.062,1.952-8.729-1.617-2.6-7.98-5.941-14.436-4,2.831-.376,20.894.185,22.918-8.763a7.777,7.777,0,0,0,.122-2.625c-1.6-9.649-35.927-12.5-45.368-13.164l-16.564-3.76a1.224,1.224,0,0,1,.093-2.405l4.941-.723c.773,1.085,7.214,9.847,16.855,9.378,3.988-.195,14.611-2.765,12.085-7.022-5.526-9.307-10.248-16.859-13.31-19.957-4.914-4.971-12.479-4.7-24.721-4.085-6.209.311-11.606.581-18.677,2.383a81.247,81.247,0,0,0-34.7,19.2l-40.771,11.726Z" style="         fill: #d1a7db;       "/>
      <path d="M545.823,148.488c14.78,11.064,18.883,21.031,19.709,28.365.953,8.471-2.591,12.324,1.024,18.573,3.915,6.769,16.529,16.867,17.015,17.158,0,0,.02.012.018.018a67.2,67.2,0,0,1-9.674-2.829,97.19,97.19,0,0,1-14.5-7.062l-6.453,1.377Z" style="         fill: #ae75bc;       "/>
      <path d="M653.618,147.664c-1.984,0-5.371-.819-11.36-3.356a4.395,4.395,0,0,1-2.653-3.6,4.215,4.215,0,0,1,1.809-3.952,11.429,11.429,0,0,1,5.991-2.022,5.6,5.6,0,0,1,4.583,2.068h0c4.158,5.11,5.475,8.134,4.272,9.8A2.911,2.911,0,0,1,653.618,147.664Zm-5.955-11.186c-.058,0-.117,0-.175,0a9.793,9.793,0,0,0-2.649.494,9.682,9.682,0,0,0-2.43,1.22,2.487,2.487,0,0,0-1.063,2.334,2.611,2.611,0,0,0,1.6,2.167c10.195,4.319,11.7,3.161,11.9,2.884.16-.221.707-1.632-4.209-7.674h0A3.847,3.847,0,0,0,647.663,136.478Z" style="         fill: #403838;       "/>
      <path d="M633.749,183.23a25.039,25.039,0,0,0,2.2-7.324c.2-1.482.459-4.374-3.787-18.433-1.48-4.9-2.229-6.926-4.274-7.934a7.157,7.157,0,0,0-6.043.184c-4.588,2.324-6.012,11.11-3.692,21.821-2.573.234-23.169,2.3-25.741,2.535a29.4,29.4,0,0,0,15.116,13.435c12.791,4.874,24.048-1.617,25.492-2.482Q633.382,184.131,633.749,183.23Z" style="         fill: #d1a7db;       "/>
      <path d="M632.149,183.066a8.022,8.022,0,0,1-4.21-1.124c-3.585-2.184-5.009-7.149-3.386-11.8a.875.875,0,0,1,1.653.576c-1.354,3.882-.242,7.976,2.643,9.734a7.236,7.236,0,0,0,5.574.554.875.875,0,1,1,.475,1.684A10.325,10.325,0,0,1,632.149,183.066Z" style="         fill: #403838;       "/>
      <path d="M635.356,205.446a.892.892,0,0,1-.374-.084.876.876,0,0,1-.417-1.165,24.169,24.169,0,0,0,2.121-7.069c.171-1.255.528-3.866-3.758-18.061-1.421-4.705-2.119-6.563-3.823-7.4a6.315,6.315,0,0,0-5.262.179c-4.176,2.117-5.476,10.5-3.233,20.856a.874.874,0,0,1-.775,1.056l-7.717.7a.875.875,0,1,1-.159-1.742l6.74-.615c-2.155-10.861-.478-19.371,4.354-21.819a8.049,8.049,0,0,1,6.825-.189c2.439,1.2,3.254,3.6,4.725,8.467,4.4,14.559,4.019,17.321,3.816,18.8a25.946,25.946,0,0,1-2.271,7.58A.876.876,0,0,1,635.356,205.446Z" style="         fill: #403838;       "/>
      <path d="M650.155,188.261a.891.891,0,0,1-.3-.053l-15.291-5.582a.875.875,0,0,1,.6-1.644l14.792,5.4L665.309,172.4a.875.875,0,0,1,1.179,1.293l-15.744,14.343A.876.876,0,0,1,650.155,188.261Z" style="         fill: #403838;       "/>
      <path d="M658.4,172.609a.829.829,0,0,1-.184-.02l-13.62-2.91a.875.875,0,1,1,.365-1.711l13.621,2.91a.875.875,0,0,1-.182,1.731Z" style="         fill: #403838;       "/>
      <path d="M623.02,143.735a21.729,21.729,0,0,1-4.252,4.554,23.045,23.045,0,0,1-12.708,4.847,48.079,48.079,0,0,0,18.064,3.419c6.3-.066,10.2-1.424,16.059-2.662a110.854,110.854,0,0,1,26.385-2.25l-13.08-2.483c-.2-.038-5.273,1.6-9.737,1.09-6.664-.763-9.285-3.4-9.64-3.492C630.794,145.9,625.978,144.452,623.02,143.735Z" style="         fill: #ae75bc;       "/>
      <path d="M671.075,191.616a.876.876,0,0,1-.765-.45,10.079,10.079,0,0,1-1.272-6.062c.686-5.881,6.578-8.43,6.828-8.536a.875.875,0,0,1,.68,1.613c-.052.021-5.2,2.247-5.77,7.126a8.35,8.35,0,0,0,1.062,5.008.875.875,0,0,1-.763,1.3Z" style="         fill: #403838;       "/>
    </g>
    <polygon points="532 513 498 605 603 611 644 513 532 513" style="         fill: #b595a2;                fill-rule: evenodd;       "/>
    <g>
      <path d="M743.146,633.943a31.4,31.4,0,0,1,3.417,13.344,20.421,20.421,0,0,1-10.451,19.042l-4.1,2.157a132.233,132.233,0,0,1-63.227,15.392l-159.663-1.873c-10.272-.121-18.329-9.76-17.6-21.059q2.259-35.162,4.517-70.323a27.538,27.538,0,0,1,18.772-24.36l30.868-10.291c-6.252-17.955-1.444-35.658,9.014-42.248,9.613-6.057,20.7-.646,21.972,0,11.863,6.028,19.032,21.865,17.466,39.762,36.013,42.437,68.117,55.892,91.552,59.955C706.413,617.036,733.4,615.539,743.146,633.943Z" style="         fill: #e5d2d8;       "/>
      <path d="M744.829,637.833l.589,1.5c3.91,9.956.356,21.621-8.286,26.807l-.183.109a77.5,77.5,0,0,1-13.746,6.475A42.308,42.308,0,0,0,717.23,661.9c-21.445-27.85-68.83-10.225-109.862-11.8-26.558-1.022-65.09-10.651-111.767-52.712,3.82,2.565,22.089,14.245,41.342,6.737a39.332,39.332,0,0,0,11.268-6.835,54.6,54.6,0,0,0-2.817-16.153,50.983,50.983,0,0,0-13.137-20.689c4.379-1.387,8.476-3.086,12.855-4.473l30.142,30.753,30.426-20.451,6.846,6.815c-3.3,2.348-10.987,8.553-13.609,19.228-4.252,17.3,7.614,34.889,19.155,42.248,13.525,8.623,27.35,3.678,44.508.621C681.605,631.8,709.2,629.932,744.829,637.833Z" style="         fill: #4097ff;       "/>
      <path d="M563.423,592.938c9.134.577,25.352,19.26,17.465,35.414a34.514,34.514,0,0,1-12.7,14.253,144.807,144.807,0,0,1-47.867-22.641,154.9,154.9,0,0,1-24.741-22.283c-.009-.011.029-.516.033-.513a51.564,51.564,0,0,0,25.271,8.507c6.645.368,16.458-1.779,16.518-1.737,13.568,9.571,25.395,11.189,28.836,6.4C569.645,605.592,564.49,595.053,563.423,592.938Z" style="         fill: #ffe3c3;       "/>
      <path d="M694.841,614.737l-2.1,1.242a57.682,57.682,0,0,1-41.775,6.9,179.891,179.891,0,0,1-75.713-36.154,190.811,190.811,0,0,1-29.86-30.443c-8.665-14.317-5.7-32.841,5.071-41.626,11.352-9.263,26.987-4.116,35.614,5,12.4,13.107,8.541,32.536,8.33,33.519a191.084,191.084,0,0,0,28.17,27.337A179.422,179.422,0,0,0,694.841,614.737Z" style="         fill: #3fb4e9;       "/>
      <path d="M662.726,604.385a117.8,117.8,0,0,0-43.527,10.3A120.238,120.238,0,0,0,605.461,622a38.057,38.057,0,0,1-8.235-12.9,40.826,40.826,0,0,1-2.623-12.057,17.259,17.259,0,0,1,5.611-13.851l12.274-11.2a29.124,29.124,0,0,1,9.633,6.977c3.539,2.132,7.3,4.6,11.183,7.456,3.422,2.515,6.524,5.026,9.319,7.455q1.539.585,3.107,1.243A96.251,96.251,0,0,1,662.726,604.385Z" style="         fill: #c7d94f;       "/>
      <path d="M579.075,682.826A109.492,109.492,0,0,0,543.7,646.99a96.84,96.84,0,0,0-50.353-14.57l-2.294,30.335c-.777,10.278,6.523,19.12,15.874,19.229Z" style="         fill: #ffadc7;       "/>
      <g id="Oval-17-i4">
        <ellipse cx="592.25" cy="575.869" rx="4.488" ry="4.535" transform="translate(-63.533 73.54) rotate(-6.745)" style="         fill: #403838;       "/>
      </g>
      <g id="Oval-19-i4">
        <ellipse cx="626.562" cy="603.221" rx="4.488" ry="4.535" transform="translate(-66.508 77.759) rotate(-6.745)" style="         fill: #403838;       "/>
      </g>
      <path d="M626.469,602.947a1,1,0,0,1-.822-1.569,19.063,19.063,0,0,1,17.687-8.129,1,1,0,0,1-.208,1.989,17.061,17.061,0,0,0-15.833,7.277A1,1,0,0,1,626.469,602.947Z" style="         fill: #403838;       "/>
      <path d="M592.95,575.944a1,1,0,0,1-.806-1.591,22.7,22.7,0,0,1,14.269-8.94,1,1,0,1,1,.36,1.967,20.707,20.707,0,0,0-13.015,8.154A1,1,0,0,1,592.95,575.944Z" style="         fill: #403838;       "/>
      <g id="Path-52-i4">
        <path d="M571,562a1,1,0,0,1-.855-1.516,19.248,19.248,0,0,1,10.864-8.9c7.979-2.291,13.656.926,18.6,4.742a1,1,0,0,1-1.222,1.584c-4.529-3.5-9.7-6.452-16.828-4.4a17.272,17.272,0,0,0-9.7,8.012A1,1,0,0,1,571,562Z" style="         fill: #403838;       "/>
      </g>
      <path d="M576.925,557.161l-3.062-2.461a11.1,11.1,0,0,0-15.561,1.691l-5.339,6.641a7.626,7.626,0,0,0,1.163,10.692l8.458,6.8a7.628,7.628,0,0,0,10.693-1.162l5.339-6.641A11.1,11.1,0,0,0,576.925,557.161Zm-5.591,11.85a6.256,6.256,0,1,1-4.078-7.851A6.255,6.255,0,0,1,571.334,569.011Z" style="         fill: #4097ff;       "/>
    </g>
    <polygon points="822 626 760 557 857 523 893.145 573.799 822 626" style="         fill: #c9a6b4;       "/>
    <path d="M355.417,399.065,560,398,666.612,530.381C667.935,534.15,681.406,570.533,720,582c28.895,8.585,60.669-.123,82.2-22.411l15.219-7.117a69.712,69.712,0,0,0,24.242-27.581c2.32-4.795,10.617-22.6,5.338-43.891-7.843-31.633-38.925-43.85-42-45L693.314,233.478,404,257Z" style="         fill: #5dace2;       "/>
    <polygon points="580.804 337.324 517.246 398.223 559.804 398.324 578.763 421.298 580.804 337.324" style="         fill: #3591ba;       "/>
    <path d="M754,582c.429-11.164,30.8-36.038,44.331-56.773,7.5-11.5,10.42-20.887,20.669-24.227,6.321-2.06,10.263-.135,15-3,7.962-4.814,9.137-17.693,8.662-28.8C847.1,474.752,861.775,494.5,857,517c-4.047,19.068-19.869,29.754-38,42-17.746,11.986-36.1,17.886-46,21-7.686,2.417-19.013,4.639-19.018,4.428C753.967,583.782,753.963,582.954,754,582Z" style="         fill: #3591ba;       "/>
    <path d="M722.505,304c9.9,3.41,14.3,8.371,16.5,12,11.536,19.088-12.254,43.985-19,89a161.206,161.206,0,0,0-.705,42c-7.937,4.132-25.785,22.065-36.916,51-3.084,8.018-8.41,21.833-5.617,39A63.784,63.784,0,0,0,685,560a79.292,79.292,0,0,1-9-11c-6.135-9.131-8.663-18.365-10.473-25l-38.5-59.7Z" style="         fill: #3591ba;       "/>
    <path d="M323.077,31.908,464.585,178.983a204.969,204.969,0,0,1,46.906-49.833,24.954,24.954,0,0,1,34.445,4.316C572.148,165.9,584.028,204.066,573,233c-18.436,48.369-104.641,80.768-191.079,34.908Z" style="         fill: #4ca2bb;       "/>
    <path d="M409,259c16.5-21.25,33.132-31.542,45-37,25-11.5,41.895-7.528,77-19a229.725,229.725,0,0,0,42.346-18.762L589,224Z" style="         fill: #477ca2;       "/>
    <path d="M361,72c2.674,12.5,24.924,65.408,27.6,77.908L396,251c7.667-3,29.91-7.592,37.577-10.592a44.57,44.57,0,0,0,10.816-18.588C451.537,196.308,433.3,164.073,399,141a162.8,162.8,0,0,0-8-23A165.58,165.58,0,0,0,361,72Z" style="         fill-rule: evenodd;                fill: #477ca2;       "/>
    <path d="M192.26,312.771l37.129,52.509c18.133,25.645,43.925,45.422,75.256,47.629l86.383,2.254a366.343,366.343,0,0,0,64.931-2.7C473.4,410.174,503.346,406.025,539,391c14.492-6.107,27.783-16.964,35.8-21.676C559.112,387.354,541.692,409.969,526,428c-27.059,12.9-44.68,36.93-45.283,62.514-.588,24.929,16.214,42.817,26.451,53.716C541.5,580.787,589,587.426,608,589c3.815-.132,42.5-2.142,65-36,20.44-30.757,11.348-63.454,10-68a650.424,650.424,0,0,0,26.077-67.092c1.79-5.5,4.354-13.619,9.091-29.965C724.531,365.988,730.455,343.9,737,322c4.838-16.192,12.449-41.4,4.044-69.888A180.431,180.431,0,0,0,733,233c-33.307-66.221-212.07-16.008-318.7,9.045L314,264Z" style="         fill-rule: evenodd;                fill: #5dace2;       "/>
    <path d="M382,255c-33.657,19.39-55.4,39.917-69,55-19.19,21.287-32.317,43.009-54,44a38.336,38.336,0,0,1-18.573-4.157,27.294,27.294,0,0,0-22.2-.669l-.129.052L192,313l125.673-49.8,71.38-15.625Z" style="         fill-rule: evenodd;                fill: #3591ba;       "/>
    <path d="M106.577,281.56C146.225,105.705,221.519-4.333,283.577.131c57.727,4.152,95.511,106.775,107,141.188,24.243,19.488,34.5,49.877,26,76.754-10.483,33.162-47.812,55.613-88,50.221a114.589,114.589,0,0,1-47,40.746c-33.051,15.6-63.888,11.3-74,9.476Z" style="         fill: #4ca2bb;       "/>
    <g id="Group-4-2-i4">
      <g id="Group-6-3-i4">
        <g id="Path-33-i4">
          <path d="M169,384c-8.954,49.926-31.51,61.119-41.278,65.423-32.693,14.406-61.725,2.033-66.742,0C38.19,477.829,34.935,483.077,24.756,482.2c-11.421-.976-1.462-11.4,4.679-27.494-1.168.126-26.261,3.521-28.895-2.754-3.221-7.684,8.85-10.814,12.761-13.66-7-1.309-10.821.307-11-5.508C2.086,426,30.9,413.505,84.79,397.35c3.593-1.077,8.44-14.3,12.21-15.35Z" style="         fill: #d1a7db;       "/>
        </g>
        <g id="Path-34-i4">
          <path d="M28.709,459.31a.985.985,0,0,1-.43-.1,1,1,0,0,1-.473-1.332c.859-1.8,1.571-3.4,2.26-4.941,2.332-5.221,4.017-8.992,8.2-13.576a44.186,44.186,0,0,1,22.127-12.989,1,1,0,1,1,.462,1.946,42.191,42.191,0,0,0-21.119,12.4c-3.958,4.339-5.587,7.987-7.842,13.036-.662,1.483-1.412,3.161-2.281,4.986A1,1,0,0,1,28.709,459.31Z" style="         fill: #403838;       "/>
        </g>
        <g id="Path-35-i4">
          <path d="M15.215,438.594a1,1,0,0,1-.568-1.823,122.46,122.46,0,0,1,40.045-18.113,1,1,0,0,1,.482,1.941,120.456,120.456,0,0,0-39.393,17.818A1,1,0,0,1,15.215,438.594Z" style="         fill: #403838;       "/>
        </g>
        <g id="Path-36-i4">
          <path d="M28.98,478.5a4.364,4.364,0,0,1-3.142-1.166,7.128,7.128,0,0,1-1.652-5.379,8.6,8.6,0,0,1,2.594-6.25c1.708-1.422,4.223-1.526,6.728-.275,2.351,1.175,4.668,3.624,4.546,6.033-.135,2.672-3.233,5.3-6.079,6.414A8.291,8.291,0,0,1,28.98,478.5Zm1.091-11.949a3.059,3.059,0,0,0-2.011.692,6.812,6.812,0,0,0-1.875,4.791,5.38,5.38,0,0,0,1.05,3.869c1.11,1.084,3.174.44,4.01.112,2.487-.975,4.736-3.148,4.812-4.653h0c.066-1.3-1.478-3.161-3.443-4.143A5.989,5.989,0,0,0,30.071,466.547Z" style="         fill: #403838;       "/>
        </g>
        <g id="Path-37-i4">
          <path d="M10.441,450.59a7.808,7.808,0,0,1-2.882-.5,2.816,2.816,0,0,1-2.037-2.606c-.022-2.438,3.638-5.971,6.527-6.3a3.692,3.692,0,0,1,3.843,2.225,5.115,5.115,0,0,1-.661,5.622h0A7.038,7.038,0,0,1,10.441,450.59Zm2.069-7.432a2.128,2.128,0,0,0-.235.014c-2.105.241-4.764,3.088-4.753,4.3,0,.3.271.558.8.773,1.614.665,4.543.331,5.5-.625h0a3.189,3.189,0,0,0,.269-3.338A1.707,1.707,0,0,0,12.51,443.158Z" style="         fill: #403838;       "/>
        </g>
        <g id="Path-38-i4">
          <path d="M9.116,434.1a7.28,7.28,0,0,1-2.548-.431,2.868,2.868,0,0,1-2.108-2.515c-.085-2.226,3.057-5.341,5.6-5.556a3.484,3.484,0,0,1,3.474,2.16,4.678,4.678,0,0,1-.488,5.035h0A5.616,5.616,0,0,1,9.116,434.1Zm1.244-6.515c-.041,0-.083,0-.127,0-1.673.142-3.813,2.5-3.775,3.486.015.374.584.633.828.727,1.39.534,3.617.327,4.331-.4h0a2.8,2.8,0,0,0,.113-2.786A1.559,1.559,0,0,0,10.36,427.588Zm1.974,4.511h0Z" style="         fill: #403838;       "/>
        </g>
      </g>
      <path d="M94,394a61.281,61.281,0,0,0,25,18c19.512,7.487,36.816,2.37,42.014.613A63.374,63.374,0,0,0,165,404a64.181,64.181,0,0,0,4-20l-74-3-8.259,14.838Z" style="         fill: #ba87c6;       "/>
    </g>
    <g id="Path-2-2-i4">
      <path d="M131.1,426.228l5.677,18.1q-24.526,13.757-31.646,18.1c-27.582,16.811-36.518,24-36.518,13.788,0-5.293,2.035-11.984,5.677-18.014,5.256-8.7,13.918-16.827,25.155-24.213Q108.071,428.318,131.1,426.228Z" style="         fill: #d1a7db;                fill-rule: evenodd;       "/>
    </g>
    <g id="Path-48-i4">
      <path d="M74.148,478.805a4.125,4.125,0,0,1-2.789-.945,5.466,5.466,0,0,1-1.522-4.375,6.789,6.789,0,0,1,2.353-5.138c1.673-1.254,4.1-1.236,6.5.046,1.69.906,3.625,2.676,3.512,4.682-.117,2.093-2.59,4.062-4.838,5A8.413,8.413,0,0,1,74.148,478.805Zm.959-9.381a2.8,2.8,0,0,0-1.717.523,4.849,4.849,0,0,0-1.554,3.614,3.652,3.652,0,0,0,.841,2.8c.724.635,2.223.591,3.911-.12,2.1-.882,3.566-2.4,3.615-3.272h0c.04-.712-.869-1.956-2.46-2.807A5.8,5.8,0,0,0,75.107,469.424Z" style="         fill: #403838;       "/>
    </g>
    <g id="Path-3-2-i4">
      <path d="M78.24,454.576A1,1,0,0,1,77.423,453c6.356-9.009,11.893-15.422,16.459-19.06a42.836,42.836,0,0,1,17.481-7.907,1,1,0,1,1,.438,1.952A40.857,40.857,0,0,0,95.128,435.5c-4.418,3.521-9.824,9.795-16.07,18.649A1,1,0,0,1,78.24,454.576Z" style="         fill: #403838;       "/>
    </g>
    <path d="M271.223,175.143a166.447,166.447,0,0,1-19.146,67.765,165.389,165.389,0,0,1-32,42c-5.97,19.824-4.009,44.75-12.077,67.092-1.839,5.093-3.34,9.748-4.614,14.051a58.706,58.706,0,0,1-81.749,36.126l-.56-.269q-3.524-1.695-6.993-3.087c-1.793-.722-3.173-1.283-4.784-1.857-4.189-1.492-7.415-2.3-7.727-2.382C97.669,393.556,45.814,372.2,45,330c-.473-24.515,16.425-48.391,42-61,13.345-49.679,38.05-115.259,86-181a533.742,533.742,0,0,1,49-58" style="         fill: #4ca2bb;       "/>
    <path d="M274.371,212.146A89.739,89.739,0,0,1,238,290a36.67,36.67,0,0,1-4,20c-5.942,11.318-16.124,9.844-19,11,1.634-13.977,3.366-22.023,5-36a95.512,95.512,0,0,0,54.371-72.854Z" style="         fill: #477ca2;       "/>
    <path d="M191,287a74.111,74.111,0,0,0,29-2l-2.228,16.219A23.871,23.871,0,0,1,208,301C197.177,298.435,191.968,288.862,191,287Z" style="         fill-rule: evenodd;                fill: #477ca2;       "/>
    <path d="M215,321a1.027,1.027,0,0,1-.232-.027,1,1,0,0,1-.742-1.2c4.279-18.021,4.807-23,5.05-34.882a1,1,0,0,1,.584-.889,92.21,92.21,0,0,0,40.487-35.52c19.043-31.069,12.551-63.792,10.108-73.081a1,1,0,0,1,1.934-.508c2.5,9.482,9.12,42.89-10.337,74.634a94.135,94.135,0,0,1-40.79,36.031c-.275,12.4-1.08,17.787-5.09,34.678A1,1,0,0,1,215,321Z" style="         fill: #403838;       "/>
    <path d="M198.5,288.365c-2.869,0-5.738-.123-8.589-.369a1,1,0,0,1,.172-1.992,97.86,97.86,0,0,0,29.7-1.98,1,1,0,0,1,.434,1.953A100.425,100.425,0,0,1,207.086,288C204.239,288.242,201.372,288.365,198.5,288.365Z" style="         fill: #403838;       "/>
    <g>
      <path d="M1023.844,537.336a30.572,30.572,0,0,1,8.4,10.315c3.65,6.971,3.178,15.4-.988,21.323l-2.582,3.671a125.959,125.959,0,0,1-47.2,40.828L845.46,680.583c-8.751,4.317-19.556-.727-23.608-11.022q-12.609-32.033-25.217-64.066a27.909,27.909,0,0,1,5.842-29.605l21.9-22.384c-12.71-13.168-15.949-30.878-9.812-41.2,5.642-9.491,17.27-9.487,18.612-9.463,12.538.216,25.151,11.118,31.216,27.6,48.031,21.976,80.782,20.035,102.31,13.532C985.746,538.221,1007.986,525.277,1023.844,537.336Z" style="         fill: #e5d2d8;       "/>
      <path d="M1026.876,540.047l1.119,1.073c7.424,7.11,9.23,18.945,4.052,27.248l-.11.176a75.656,75.656,0,0,1-8.969,11.64,39.975,39.975,0,0,0-9.53-6.989c-29.668-15.366-62.527,20.611-97.936,36.888-22.917,10.536-59.533,18.625-116.442,1.572,4.294.621,24.594,3.07,37.8-11.854a38.875,38.875,0,0,0,6.722-10.89,53.652,53.652,0,0,0-9.057-13.056,47.673,47.673,0,0,0-19.671-12.618c3.136-3.112,5.9-6.377,9.041-9.489l38.233,14.186,17.326-31.171,8.614,3.072c-1.828,3.5-5.774,12.288-3.587,22.847,3.545,17.116,20.858,27.54,33.673,29.07,15.018,1.793,24.687-8.53,37.958-18.62C970.828,561.944,993.429,548.414,1026.876,540.047Z" style="         fill: #4097ff;       "/>
      <path d="M854.673,578.518c7.975-3.425,29.429,6.094,29.419,23.761a34.965,34.965,0,0,1-4.87,18.06,130.963,130.963,0,0,1-49.9.615,141.476,141.476,0,0,1-30.2-9.044c-.153-.13-.262-.433-.164-.455a46.735,46.735,0,0,0,24.935-3.367c5.781-2.536,13.206-8.659,13.274-8.648,15.446,2.611,26.132-1.053,27.067-6.768C865.169,587.015,856.45,579.926,854.673,578.518Z" style="         fill: #4097ff;       "/>
      <path d="M975,541.173l-1.266,2a54.474,54.474,0,0,1-32.535,24.087,162.762,162.762,0,0,1-79.065.672A175.078,175.078,0,0,1,824.263,553.9c-13.253-8.916-18.388-26.558-12.9-38.955,5.791-13.072,21.16-15.259,32.233-10.921,15.918,6.237,20.672,25.062,20.9,26.022a174.9,174.9,0,0,0,35.151,12.016A162.307,162.307,0,0,0,975,541.173Z" style="         fill: #3fb4e9;       "/>
      <path d="M943.516,545.861A112.031,112.031,0,0,0,910.9,573.705a118.167,118.167,0,0,0-8.617,12.377,35.585,35.585,0,0,1-12.3-7.854,39.946,39.946,0,0,1-7.2-9.52,17.611,17.611,0,0,1-.967-14.653l5.77-15.181a26.443,26.443,0,0,1,11.042,2.014c3.878.359,8.082.92,12.552,1.77,3.937.748,7.6,1.63,10.973,2.572q1.545-.147,3.144-.24A86.988,86.988,0,0,1,943.516,545.861Z" style="         fill: #c7d94f;       "/>
      <path d="M905.053,651.18a100.587,100.587,0,0,0-44.761-16.422,88.053,88.053,0,0,0-48.669,8.815l10.585,27.786c3.586,9.413,13.421,14.081,21.387,10.15Z" style="         fill: #ffadc7;       "/>
      <g id="Oval-17-2-i4" data-name="Oval-17">
        <ellipse cx="872.042" cy="551.024" rx="4.24" ry="4.445" transform="translate(-51.354 91.215) rotate(-5.817)" style="         fill: #403838;       "/>
      </g>
      <g id="Oval-18-i4">
        <ellipse cx="890.791" cy="556.623" rx="4.24" ry="4.445" transform="translate(-51.825 93.144) rotate(-5.817)" style="         fill: #403838;       "/>
      </g>
      <g id="Oval-19-2-i4" data-name="Oval-19">
        <ellipse cx="912.402" cy="560.408" rx="4.24" ry="4.445" transform="translate(-52.097 95.353) rotate(-5.817)" style="         fill: #403838;       "/>
      </g>
      <path d="M911.8,560.322a.906.906,0,0,1-.146-.011,1,1,0,0,1-.844-1.134A19.183,19.183,0,0,1,914.766,550a18.064,18.064,0,0,1,7.692-5.633,1,1,0,1,1,.71,1.869,16.08,16.08,0,0,0-6.839,5.012,17.185,17.185,0,0,0-3.542,8.22A1,1,0,0,1,911.8,560.322Z" style="         fill: #403838;       "/>
      <path d="M890.622,556.824h-.014a1,1,0,0,1-.986-1.013,19.559,19.559,0,0,1,1.449-7.179,19.079,19.079,0,0,1,6.99-8.572,1,1,0,1,1,1.12,1.656,17.091,17.091,0,0,0-6.259,7.674,17.526,17.526,0,0,0-1.3,6.448A1,1,0,0,1,890.622,556.824Z" style="         fill: #403838;       "/>
      <path d="M872.254,550.905a.985.985,0,0,1-.17-.015,1,1,0,0,1-.816-1.155,22.87,22.87,0,0,1,2.635-7.4,21.979,21.979,0,0,1,5.767-6.644,1,1,0,1,1,1.218,1.586,19.977,19.977,0,0,0-5.244,6.045,20.847,20.847,0,0,0-2.4,6.757A1,1,0,0,1,872.254,550.905Z" style="         fill: #403838;       "/>
      <g id="Path-52-2-i4" data-name="Path-52">
        <path d="M847.9,548.039a.838.838,0,0,1-.086,0,1,1,0,0,1-.911-1.081,19.268,19.268,0,0,1,5.531-12.542c5.839-5.484,12-5.087,17.789-3.839a1,1,0,1,1-.421,1.955c-6.073-1.309-11.119-1.24-16,3.341a17.294,17.294,0,0,0-4.907,11.255A1,1,0,0,1,847.9,548.039Z" style="         fill: #403838;       "/>
      </g>
      <path d="M851.334,541.1l-3.61-.856a10.458,10.458,0,0,0-12.482,8.2l-1.78,8.166a7.51,7.51,0,0,0,5.4,8.945l9.974,2.364a7.188,7.188,0,0,0,8.578-5.632l1.779-8.166A10.927,10.927,0,0,0,851.334,541.1Zm.159,12.876a6.114,6.114,0,0,1-4.967,6.983,5.936,5.936,0,0,1-6.7-5.179,6.114,6.114,0,0,1,4.966-6.983A5.937,5.937,0,0,1,851.493,553.974Z" style="         fill: #4097ff;       "/>
      <path d="M845.633,563.022a7.693,7.693,0,0,1-4.594-1.532,8.236,8.236,0,0,1,3.437-14.676,7.66,7.66,0,0,1,5.777,1.44,8.124,8.124,0,0,1,3.2,5.434h0a8.128,8.128,0,0,1-6.641,9.241A7.771,7.771,0,0,1,845.633,563.022Zm.017-12.3a3.692,3.692,0,0,0-.563.044,4.115,4.115,0,0,0-3.292,4.724,4.161,4.161,0,0,0,1.627,2.786,3.694,3.694,0,0,0,2.784.7,4.117,4.117,0,0,0,3.292-4.726,4.159,4.159,0,0,0-1.627-2.784A3.725,3.725,0,0,0,845.65,550.723Z" style="         fill: #f97381;       "/>
      <g id="Path-52-3-i4" data-name="Path-52">
        <path d="M844.456,566.088a1,1,0,0,1-.957-.713,16.446,16.446,0,0,1,.481-10.294,1,1,0,0,1,1.878.69,14.434,14.434,0,0,0-.443,9.03,1,1,0,0,1-.672,1.245A1.017,1.017,0,0,1,844.456,566.088Z" style="         fill: #403838;       "/>
      </g>
      <g id="Oval-17-3-i4" data-name="Oval-17">
        <ellipse cx="845.328" cy="567.887" rx="4.24" ry="4.445" transform="translate(-53.2 88.594) rotate(-5.817)" style="         fill: #403838;       "/>
      </g>
    </g>
    <path d="M650.453,489.876H650a77.4,77.4,0,0,1-15.326-1.658.875.875,0,0,1,.359-1.713,75.621,75.621,0,0,0,14.977,1.621c13.523.042,30.832-3.555,32.762-3.969l.1-.021a.875.875,0,0,1,.3,1.723C681.189,486.284,664.08,489.876,650.453,489.876Z" style="         fill: #403838;       "/>
    <path d="M521.932,397.466a.875.875,0,0,1-.255-1.712,164.6,164.6,0,0,0,44.83-21.476c2.887-1.972,5.744-4.061,8.49-6.209a.875.875,0,1,1,1.078,1.379c-2.776,2.17-5.663,4.282-8.581,6.275a166.346,166.346,0,0,1-45.306,21.7A.873.873,0,0,1,521.932,397.466Z" style="         fill: #403838;       "/>
    <path d="M742.143,302.655A101.169,101.169,0,0,1,702,320a93.244,93.244,0,0,1-35,0c4.483,4.851,9.472,9.891,15,15q3.461,3.2,6.859,6.125a32.188,32.188,0,0,0,26.5,7.4l.145-.025,4.346-.75a16.483,16.483,0,0,0,13.038-11.673l.021-.072c2.265-7.846,2.171-7.853,2.9-10,1.483-4.332,2.906-9.007,4.19-14.01Q741.239,307.175,742.143,302.655Z" style="         fill: #3591ba;       "/>
    <path d="M78.241,273.974A170.952,170.952,0,0,1,101,268c15.9-3.021,31-2.454,31-3s-15.678,2.409-27-6c-5.689-4.225-8.76-10.194-10.527-15.461l0,0q-1.367,4.2-2.689,8.563-2.238,7.382-4.123,14.473Z" style="         fill: #477ca2;       "/>
    <path d="M329,268a62.1,62.1,0,0,1,3-8c.649-1.425,1.322-2.758,2-4a71.756,71.756,0,0,0,34,2,72.975,72.975,0,0,0,39.621-21.971C405.8,240.485,398.248,257.521,379,267,355.1,278.769,332.365,269.446,329,268Z" style="         fill-rule: evenodd;                fill: #477ca2;       "/>
    <path d="M773,444.875a.874.874,0,0,1-.4-1.653,72.9,72.9,0,0,1,32.387-8.1H805a.875.875,0,0,1,.011,1.75,71.137,71.137,0,0,0-31.613,7.9A.874.874,0,0,1,773,444.875Z" style="         fill: #403838;       "/>
    <path d="M450,205a1.012,1.012,0,0,1-.323-.053,1,1,0,0,1-.623-1.27,70.548,70.548,0,0,1,15.216-25.359,1,1,0,0,1,1.461,1.365,68.557,68.557,0,0,0-14.785,24.641A1,1,0,0,1,450,205Z" style="         fill: #403838;       "/>
  </g>
</g></g></g><!--ITEM 5--><g><defs><clipPath id="clip-path-id-viewbox-item-5"><rect x="0.0" y="0.0" width="276.323" height="231.112"/></clipPath></defs><g transform="translate(248.0 103.0) rotate(0.0 139.0 116.5) scale(1.0060689844855477 1.0081691993492332)"><g clip-path="url(#clip-path-id-viewbox-item-5)" transform="translate(-0.0 -0.0)"><g>
    <g id="Oval-i5">
      <circle cx="150.707" cy="45.678" r="45.674" style="         fill: #211f1f;       "/>
    </g>
    <g id="Oval-2-i5" data-name="Oval">
      <path d="M182.439,76.964C145.7,59.949,101.8,76.642,84.381,114.249s-1.754,81.887,34.985,98.9,77.292-.764,94.709-38.37c2.672-5.768,7.913-10.608,9.071-16.568C229.54,125.317,213.542,91.369,182.439,76.964Z" style="         fill: #2b2929;                fill-rule: evenodd;       "/>
    </g>
    <path d="M276.323,151.356c-5.744-.665-13.531-2.524-20.095-8.163-11.211-9.631-9.706-22.429-19-27-4.174-2.053-11.135-2.747-23.23,3.908-1.787-3.768-7.984-13.14-9.77-16.908,26.159-13.142,40.664-6,45-2,7.267,6.7-.386,21.434,9,36C263.313,145.083,270.988,149.182,276.323,151.356Z" style="         fill: #2b2929;       "/>
    <path d="M245.565,142.594c-6.011-1.036-9.188-3.432-10.969-5.386-3.327-3.649-3.191-7.3-6.922-10.019a13.452,13.452,0,0,0-8.4-2.26c-6.655-5.286-7.967-7.853-7.062-8.6.781-.642,22.467-9.3,24.645,12.474C237.157,131.808,237.675,136.172,245.565,142.594Z" style="         fill: #211f1f;       "/>
    <g id="Oval-3-i5" data-name="Oval">
      <circle cx="79.415" cy="66.06" r="65.906" style="         fill: #2b2929;       "/>
    </g>
    <path d="M60.244,124.1C28.748,122.17,2.949,99.9.233,72.291-2.073,48.859,12.574,23.72,32.883,16.255a40.008,40.008,0,0,1,12.831-2.406l.05,2a37.98,37.98,0,0,0-12.191,2.283C14.065,25.3,0,49.511,2.223,72.1,4.844,98.735,29.84,120.233,60.366,122.1Z" style="         fill: #2b2929;       "/>
    <g id="Oval-4-i5" data-name="Oval">
      <path d="M183.439,76.964C146.7,59.949,102.8,76.642,85.381,114.249s-1.754,81.887,34.985,98.9,77.292-.764,94.709-38.37c2.672-5.768,7.913-10.608,9.071-16.568C230.54,125.317,214.542,91.369,183.439,76.964Z" style="         fill: #2b2929;                fill-rule: evenodd;       "/>
    </g>
    <path d="M201.682,105.587,170.744,91.258c-22.425-10.386-49.154-.346-59.7,22.424L94.167,150.123a5.3,5.3,0,0,0-.482,2.209c-7.538,23.8,4.45,52.473,30.189,68.235,29.553,18.1,66.031,12.323,81.476-12.9a46.213,46.213,0,0,0,3.68-7.437l6.312-1.046a5.033,5.033,0,0,0,1.308-.662c2.279-1.6,2.537-3.75,1.874-6.838l-3.672-11.735a40.577,40.577,0,0,0,6.067-9.42l2.273-4.908C233.738,142.852,224.107,115.973,201.682,105.587Z" style="         fill: #d1a7db;       "/>
    <path d="M201.682,105.586,170.744,91.258c-22.425-10.386-49.154-.346-59.7,22.424l-16.877,36.44a5.3,5.3,0,0,0-.482,2.21,57.45,57.45,0,0,0-1.457,24.861,49.481,49.481,0,0,0,3.412,10.7,145.835,145.835,0,0,1,32.2-18.007c30.4-12.16,49.889-7.634,80-23a134.781,134.781,0,0,0,18.349-11.3,46.676,46.676,0,0,0-14.841-23.9A43.443,43.443,0,0,0,201.682,105.586Z" style="         fill: #ae75bc;       "/>
    <g id="Path-12-i5">
      <path d="M216.715,109.564c3.167,3.833,6.692,9.417,5.519,15.08-2.964,14.314-32.753,21.322-52.614,22.6-27.355,1.754-35.592-7.274-49.392-1.047-9.916,4.474-20.4,15.779-26,44L85.8,169.956a51.324,51.324,0,0,1-1.576-20.763,53.192,53.192,0,0,1,15.066-30.131c1.408-2.131,23.449-34.694,49.934-34.869,8.322-.055,24.121,3.041,39.02,9.42,1.152.494,2.1.922,2.75,1.219Z" style="         fill: #2b2929;                fill-rule: evenodd;       "/>
    </g>
    <g id="Oval-5-i5" data-name="Oval">
      <path d="M131.527,140.044a19.059,19.059,0,1,0-16.015,34.579q.471.218.946.409s24.818-9.67,24.854-9.751A19.282,19.282,0,0,0,131.527,140.044Z" style="         fill-rule: evenodd;                fill: #ae75bc;       "/>
    </g>
    <path d="M206.142,206.322l-13.537-4.346a11.261,11.261,0,0,0,7.374,12.812,18.49,18.49,0,0,0,6.163-8.466Z" style="         fill: #fff;       "/>
    <path d="M198.913,154.7a3.957,3.957,0,0,0,3.321-4.419,5.63,5.63,0,0,0-2.006-4.083,3.913,3.913,0,0,0-.431-.244c-4.477-2.15-14.569,3.244-14.569,3.244-2.862,1.53-6.3,3.5-10.132,5.985a1.619,1.619,0,0,0,1.129,2.955Z" style="         fill: #2b2929;       "/>
    <path d="M162.912,129.017l-.931,19.3a2.749,2.749,0,0,0,3.389,2.805l8.95-2.15a2.578,2.578,0,0,0,1.548-3.93L164.9,128.47A1.087,1.087,0,0,0,162.912,129.017Zm3.965,7.561,4.113,6.215a2.578,2.578,0,0,1-1.745,3.969l-1.141.182a2.749,2.749,0,0,1-3.179-2.847l.341-7.076A.879.879,0,0,1,166.877,136.578Z" style="         fill-rule: evenodd;                fill: #ffadc7;       "/>
    <path d="M153.5,127.568l-11.667,15.4a2.749,2.749,0,0,0,1.212,4.229l8.6,3.28a2.578,2.578,0,0,0,3.5-2.369l.309-19.867A1.086,1.086,0,0,0,153.5,127.568Zm-1,8.479-.116,7.452a2.578,2.578,0,0,1-3.682,2.29l-1.044-.495a2.749,2.749,0,0,1-1.015-4.145l4.277-5.647A.879.879,0,0,1,152.506,136.047Z" style="         fill-rule: evenodd;                fill: #7c7c29;       "/>
    <g id="Path-9-i5">
      <path d="M114.524,168.484a1,1,0,0,1-.811-.414c-4.087-5.657-4.931-11.178-2.508-16.408,2.437-5.262,7.1-7.943,13.87-7.969h0a1,1,0,0,1,0,2c-6.006.024-9.952,2.25-12.063,6.809-2.126,4.59-1.369,9.3,2.314,14.4a1,1,0,0,1-.81,1.586Z" style="         fill: #403838;       "/>
    </g>
    <g>
      <path d="M190.228,174.193a13.98,13.98,0,0,1,6.891-12.046,22.645,22.645,0,0,0-5.787-2.2c-8.783-2.043-17.056,1.254-18.477,7.365s4.546,12.72,13.329,14.763a22.381,22.381,0,0,0,6.865.525A13.92,13.92,0,0,1,190.228,174.193Z" style="         fill-rule: evenodd;                fill: #fff;       "/>
      <path d="M197.119,162.147a13.955,13.955,0,0,0-4.07,20.448c5.876-.477,10.574-3.427,11.612-7.889C205.74,170.067,202.555,165.145,197.119,162.147Z" style="         fill: #2b2929;                fill-rule: evenodd;       "/>
    </g>
  </g>
</g></g></g><!--ITEM 6--><g><defs><clipPath id="clip-path-id-viewbox-item-6"><rect x="0.0" y="0.0" width="144.0" height="144.0"/></clipPath></defs><g transform="translate(1047.0 372.0) rotate(0.0 72.5 72.5) scale(1.0069444444444444 1.0069444444444444)"><g clip-path="url(#clip-path-id-viewbox-item-6)" transform="translate(-0.0 -0.0)"><g>
    <circle cx="72" cy="72" r="72" style="         fill: #ffe9d0;       "/>
    <circle cx="72.5" cy="71.5" r="50.5" style="         fill: #fff4e7;       "/>
    <circle cx="72" cy="72" r="36" style="         fill: #f75c84;       "/>
  </g>
</g></g></g></svg>