<svg xmlns="http://www.w3.org/2000/svg" version="1.1" viewBox="0 0 1920 1080" width="1920" height="1080">
<!--ITEM 1--><g><defs><clipPath id="clip-path-id-viewbox-item-1"><rect x="0.0" y="0.0" width="586.716" height="648.554"/></clipPath></defs><g transform="translate(30.0 363.0) rotate(0.0 293.0 324.0) scale(0.9987796480750483 0.9991457920234861)"><g clip-path="url(#clip-path-id-viewbox-item-1)" transform="translate(-0.0 -0.0)"><g>
    <g>
      <g>
        <path d="M115.3,645.49H556.567c21.4,0,35.976-19.1,27.881-36.544l-69.019-148.7C481.1,386.28,399.363,337.948,308.607,337.948h0c-123.392,0-223.421,88.062-223.421,196.691v84.336C85.185,633.619,98.669,645.49,115.3,645.49Z" style="         fill: #ff5e43;       "/>
        <rect x="158.518" y="287.888" width="149.755" height="132.224" transform="translate(552.514 633.202) rotate(164.581)" style="         fill: #ff5e43;       "/>
        <ellipse cx="216.109" cy="290.969" rx="75.074" ry="19.662" transform="translate(-69.585 67.933) rotate(-15.419)" style="         fill: #403838;       "/>
        <path d="M171.948,645.563c-.09-5.054.163-24.092,13.232-31.652,16.258-9.4,47.871,0,71.37,31.652Z" style="         fill: #f8a036;       "/>
        <path d="M247.365,569.133,224.6,645.49H208.266l6.345-81.091c1.066-13.625,20.839-18.693,30.046-7.7h0A13.284,13.284,0,0,1,247.365,569.133Z" style="         fill: #ffe3c3;       "/>
        <path d="M217.192,644.545l-2.4-71.93c-.161-4.829-4.282-8.84-9.724-9.465h0c-7.524-.864-13.818,4.985-12.431,11.553l14.951,70.787h9.607Z" style="         fill: #ffe3c3;       "/>
        <path d="M251.721,575.85h0c-5.445-1.2-10.967,1.7-12.356,6.488L221.04,645.49h9.633L258.621,588.1C261.1,583.016,257.815,577.191,251.721,575.85Z" style="         fill: #ffe3c3;       "/>
        <path d="M508.208,446.26c-27.635,8.67-49.328,25.367-50.076,42.388-1.015,23.109,36.308,52.961,93.994,50.659q-17.679-42.156-39.8-85.145Q510.28,450.195,508.208,446.26Z" style="         fill: #f8a036;       "/>
        <path d="M465.851,394.9l1.689,34.932c.394,8.135-8.212,14.314-17.185,12.339h0c-8.471-1.864-12.888-10.083-9.155-17.031l18.865-35.106Z" style="         fill: #ffe3c3;       "/>
        <path d="M462.425,393.221,441.6,437.7c-4.266,9.11-16.8,12.667-26.308,7.465h0c-10.559-5.778-11.517-18.99-1.879-25.9l43.858-31.46,5.511,4.516Z" style="         fill: #ffe3c3;       "/>
        <path d="M458.669,391.8,427.04,413.252a13.648,13.648,0,0,1-15.713-.477h0c-7.105-5.544-4.733-15.779,4.271-18.43l36.235-10.667,8.232,6.36Z" style="         fill: #ffe3c3;       "/>
        <path d="M389.925,648.555a3.5,3.5,0,0,1-1.36-.276c-11.238-4.742-17.353-10.551-18.7-17.759-2.213-11.877,9.654-23.33,19.189-32.533,3.485-3.364,8.631-8.331,9.463-10.5-.612-.286-2.161-.787-5.733-.98-5.642-.3-9.913-2.307-12.695-5.95-6.317-8.271-3.24-22.541-.264-36.342,1.9-8.819,4.507-20.9,1.3-22.743-4.648-2.676-10.443.449-19.512,5.77-9.929,5.825-22.284,13.075-37.04,10.222-16.662-3.22-24.744-16.944-31.874-29.052-6.167-10.471-11.493-19.515-20.918-21-12.9-2.037-23.6,11.695-35.988,27.594-12.976,16.653-27.685,35.528-48.547,38.088-27.652,3.395-57.73-21.966-91.949-77.526a3.5,3.5,0,0,1,5.96-3.671c32.181,52.251,60.828,77.228,85.136,74.249,17.979-2.206,31.146-19.1,43.879-35.443,13.178-16.911,25.635-32.883,42.6-30.206,12.689,2,19.384,13.371,25.859,24.365,6.69,11.362,13.609,23.11,27.17,25.732,12.162,2.351,22.792-3.885,32.169-9.388,9.327-5.472,18.137-10.642,26.548-5.8,7.63,4.393,5.043,16.392,2.047,30.285-2.518,11.678-5.372,24.913-1.016,30.618,1.5,1.967,3.959,3.016,7.51,3.208,4.78.258,10.474,1.109,12.084,5.429,1.957,5.248-3.617,10.627-11.331,18.073-8.327,8.037-18.691,18.04-17.168,26.214.866,4.651,5.757,8.887,14.536,12.591a3.5,3.5,0,0,1-1.362,6.726Z" style="         fill: #ffc0f3;       "/>
        <path d="M221.319,295.545a.874.874,0,0,1-.869-.78,285.411,285.411,0,0,1,10.909-115.173,303.63,303.63,0,0,1,35.446-75.717.875.875,0,0,1,1.47.95,301.823,301.823,0,0,0-35.243,75.28,283.669,283.669,0,0,0-10.842,114.47.875.875,0,0,1-.776.965C221.382,295.543,221.35,295.545,221.319,295.545Z" style="         fill: #403838;       "/>
        <path d="M214.4,297.378a.875.875,0,0,1-.834-.609c-8.5-26.686-22.475-51.812-41.528-74.682-19.986-23.989-44.91-44.74-74.083-61.676a.875.875,0,0,1,.879-1.514c29.35,17.039,54.432,37.923,74.549,62.07,19.2,23.044,33.278,48.369,41.85,75.271a.874.874,0,0,1-.833,1.14Z" style="         fill: #403838;       "/>
        <path d="M207.674,391c-.1,0-.208,0-.314-.013a3.5,3.5,0,0,1-3.177-3.8,102.616,102.616,0,0,0-.388-16.04c-.952-12.739-1.937-25.911,7.487-33.737,8.761-7.277,20.365-4.593,31.585-2,10.928,2.529,22.23,5.143,31.647-.653,9.89-6.086,15.438-19.884,16.491-41.011A3.5,3.5,0,0,1,298,294.1c-1.174,23.569-7.84,39.256-19.813,46.624-11.863,7.3-25.161,4.225-36.893,1.511-10.433-2.413-19.443-4.5-25.536.563-6.646,5.52-5.836,16.356-4.978,27.829a107.826,107.826,0,0,1,.38,17.182A3.5,3.5,0,0,1,207.674,391Z" style="         fill: #ffc0f3;       "/>
        <path d="M143.326,402.3a197.214,197.214,0,0,0,45.7-5.195,188.705,188.705,0,0,0,34.438-11.782,159.2,159.2,0,0,1-29,2.719c-11.872.023-21.708-2.041-30.06-3.657-2.356,1.646-4.77,3.435-7.219,5.381A146.32,146.32,0,0,0,143.326,402.3Z" style="         fill: #e54630;       "/>
        <path d="M196.385,389.307c-3.424,0-6.864-.123-10.151-.4-11.327-.944-17.906-2.243-22.708-4.484a.875.875,0,0,1,.74-1.586c4.6,2.147,11.008,3.4,22.114,4.326,14.126,1.178,31.063-.434,36.766-2.662a.875.875,0,1,1,.637,1.63C219.247,387.906,207.917,389.307,196.385,389.307Z" style="         fill: #403838;       "/>
      </g>
      <g>
        <path d="M21.547,60.352h0c24.325-20.42,57.646-19.333,70.589,2.621a133.3,133.3,0,0,1,9.486,19.62c6.889,17.81,9.63,37.49,10.154,50.4L76.181,162.486a178.567,178.567,0,0,1-43.229-17.412,144.791,144.791,0,0,1-20.33-14.128C-7.291,114.4-3.145,81.079,21.547,60.352Z" style="         fill: #ffe3c3;       "/>
        <path d="M21.093,60.9h0c19.959-16.755,50.181-12.431,64.056,9.46A164.063,164.063,0,0,1,95.668,89.714a165.793,165.793,0,0,1,13.41,45.572L78.47,160.979A178.935,178.935,0,0,1,39.8,141.553a177.541,177.541,0,0,1-19.775-15.277A43.2,43.2,0,0,1,21.093,60.9Z" style="         fill: #eacaac;       "/>
        <path d="M78.977,162.26l-.474-.172a176.7,176.7,0,0,1-37.956-19.165A176.052,176.052,0,0,1,21.121,127.88,42.862,42.862,0,0,1,6.7,97.281a.874.874,0,0,1,.841-.907.883.883,0,0,1,.908.841,41.124,41.124,0,0,0,13.843,29.359,174.29,174.29,0,0,0,19.231,14.894,174.953,174.953,0,0,0,37.107,18.8l29.025-24.364a162.721,162.721,0,0,0-8.04-31.631.875.875,0,1,1,1.643-.6,164.418,164.418,0,0,1,8.2,32.46l.071.483Z" style="         fill: #403838;       "/>
        <path d="M85.494,147.634,29.614,101.79A44.737,44.737,0,0,1,13.165,69.22a57.327,57.327,0,0,1,1.041-14.182h0l.594-.012a54.607,54.607,0,0,1,22.291,4.057A43.268,43.268,0,0,1,57.385,76.816l37.863,62.453C98.41,144.483,90.217,151.509,85.494,147.634Z" style="         fill: #ddb797;                fill-rule: evenodd;       "/>
        <path d="M101.133,142.207h2.547a23.643,23.643,0,0,1,23.643,23.643v1.559a5.308,5.308,0,0,1-5.308,5.308H82.8a5.308,5.308,0,0,1-5.308-5.308V165.85a23.643,23.643,0,0,1,23.643-23.643Z" transform="translate(282.081 212.223) rotate(139.988)" style="         fill: #9bb9af;       "/>
        <path d="M70.008,125.523,26.658,87.309A42.013,42.013,0,0,1,12.077,51.54h0l.422.037a43.214,43.214,0,0,1,16.2,4.717,42.317,42.317,0,0,1,15.828,14.68l31.791,49.113A4.2,4.2,0,0,1,70.008,125.523Z" style="         fill: #ffe3c3;                fill-rule: evenodd;       "/>
      </g>
    </g>
    <path d="M220.391,245.407a.781.781,0,0,1-.083,0,.875.875,0,0,1-.789-.953,184.4,184.4,0,0,0-10.9-82.2,181.6,181.6,0,0,0-29.52-50.953.875.875,0,0,1,1.353-1.11,183.319,183.319,0,0,1,29.8,51.444,186.157,186.157,0,0,1,11,82.987A.873.873,0,0,1,220.391,245.407Z" style="         fill: #403838;       "/>
    <path d="M192.125,128.367h0a21.984,21.984,0,0,1-27.027-3.209L135.129,95.174a31.264,31.264,0,0,1-5.382-7.144c-1.151-2.116-.521-1.742-.072-3.8.485-2.219,2.423-3.824,4.475-5.139l37.929-25.14c.717.732,3.38-.2,4.785-.285,3.517-.206,6.1-2.034,8.149,4.813l16.228,43.445A21.983,21.983,0,0,1,192.125,128.367Z" style="         fill: #ee2667;       "/>
    <ellipse cx="155.981" cy="70.778" rx="31.527" ry="8.295" transform="translate(-13.741 93.889) rotate(-32.161)" style="         fill: #dd1b61;       "/>
    <path d="M150.763,51.633h1.352A12.545,12.545,0,0,1,164.66,64.178v1.2a9.65,9.65,0,0,1-9.65,9.65h-7.142a9.65,9.65,0,0,1-9.65-9.65v-1.2a12.545,12.545,0,0,1,12.545-12.545Z" transform="matrix(0.843, -0.538, 0.538, 0.843, -10.295, 91.373)" style="         fill: #cc125e;       "/>
    <path d="M265.026,105.714h0a30.277,30.277,0,0,1-15.48-34.138L265.513,6.815h0a12.241,12.241,0,0,1,16.336-5.571l56.59,27.809a12.241,12.241,0,0,1,5.571,16.336L302.686,97.612A30.277,30.277,0,0,1,265.026,105.714Z" style="         fill: #ee2667;       "/>
    <ellipse cx="306.774" cy="21.244" rx="12.498" ry="42.206" transform="translate(156.994 289.81) rotate(-64.813)" style="         fill: #dd1b61;       "/>
  </g>
</g></g></g><!--ITEM 2--><g><defs><clipPath id="clip-path-id-viewbox-item-2"><rect x="0.0" y="0.0" width="120.455" height="165.596"/></clipPath></defs><g transform="translate(1143.0 44.0) rotate(0.0 60.0 82.5) scale(0.9962226557635632 0.996400879248291)"><g clip-path="url(#clip-path-id-viewbox-item-2)" transform="translate(-0.0 -0.0)"><g id="Group-3-i2">
    <g id="Group-i2">
      <g id="Oval-i2">
        <ellipse cx="63.126" cy="83.948" rx="83.271" ry="54.911" transform="translate(-34.441 122.842) rotate(-74.793)" style="         fill: #ffdc83;       "/>
      </g>
      <path d="M59.91.924A48.032,48.032,0,0,1,80.648,3L96.2,18.552Z" style="         fill: #ffdc83;       "/>
      <g id="Oval-2-i2">
        <ellipse cx="52.919" cy="82.354" rx="82.482" ry="50.725" transform="translate(-35.182 125.025) rotate(-83.119)" style="         fill: #f8a036;       "/>
      </g>
      <g id="Oval-3-i2">
        <path d="M63.069.479C44.992,16.854,20.529,44.393,17.292,81.107c-4.035,45.763,27.048,81.528,24.5,82.959-2.771,1.556-50.813-10.847-40.283-86.98C13.069-6.521,58.069-.521,63.069.479Z" style="         fill: #ef8d22;       "/>
      </g>
      <g id="Oval-4-i2">
        <ellipse cx="52.543" cy="77.804" rx="60.642" ry="38.784" transform="translate(-28.475 125.241) rotate(-86.317)" style="         fill: #ffdc83;       "/>
      </g>
      <path d="M15.529,99.858C19.211,89.074,25.413,76.5,32.95,63.14a214.738,214.738,0,0,1,32.5-43.57,27.217,27.217,0,0,0-20.058-1.018C18.833,26.2,13.516,69.321,13.248,72.472,12.275,83.928,15.459,100.062,15.529,99.858Z" style="         fill: #efc15b;       "/>
    </g>
  </g>
</g></g></g><!--ITEM 3--><g><defs><clipPath id="clip-path-id-viewbox-item-3"><rect x="0.0" y="0.0" width="344.352" height="337.456"/></clipPath></defs><g transform="translate(1519.0 682.0) rotate(0.0 172.0 168.5) scale(0.9989777901682001 0.9986487127210658)"><g clip-path="url(#clip-path-id-viewbox-item-3)" transform="translate(-0.0 -0.0)"><g>
    <g id="Group-2-i3">
      <g id="Rectangle-i3">
        <path d="M37.218,1.754l198.315,35.6,41.7,284.76C243.693,329.823,132.923,334.9,114.642,334.9s-44.288-3.857-78.024-11.57Z" style="         fill: #f8a036;       "/>
      </g>
      <g id="Oval-5-i3">
        <ellipse cx="136.318" cy="19.095" rx="6.669" ry="100.979" transform="translate(93.326 149.858) rotate(-79.774)" style="         fill: #ffdc83;       "/>
      </g>
      <g id="Oval-5-2-i3" data-name="Oval-5">
        <ellipse cx="134.517" cy="17.113" rx="3.481" ry="82.48" transform="translate(93.795 146.455) rotate(-79.774)" style="         fill: #f8a036;       "/>
      </g>
    </g>
    <g id="Path-11-i3">
      <path d="M242.819,88.556l-.049,0C212.6,87.1,177.883,83,139.572,76.363c-38.549-6.674-72.811-14.54-101.833-23.378a1,1,0,0,1,.583-1.914c28.943,8.815,63.123,16.661,101.591,23.322,38.231,6.619,72.869,10.711,102.953,12.164a1,1,0,0,1-.047,2Z" style="         fill: #ffdc83;       "/>
    </g>
    <g id="Path-11-2-i3" data-name="Path-11">
      <path d="M237.645,154.432c-28.016,0-59.53-1.7-93.92-5.06-40.408-3.953-76.476-9.4-107.2-16.176a1,1,0,1,1,.43-1.953c30.648,6.764,66.636,12.194,106.964,16.138s76.683,5.592,108.065,4.9a1.026,1.026,0,0,1,1.021.978,1,1,0,0,1-.977,1.022Q245,154.432,237.645,154.432Z" style="         fill: #ffdc83;       "/>
    </g>
    <g id="Group-5-i3">
      <g id="Rectangle-5-i3">
        <path d="M2.536,157.446l155.909,8.808L155.9,332.281a588.688,588.688,0,0,1-74.368,5.165A588.712,588.712,0,0,1,.15,332.281Z" style="         fill: #f8a036;       "/>
      </g>
      <g id="Oval-16-i3">
        <ellipse cx="80.036" cy="161.745" rx="6.629" ry="77.877" transform="translate(-85.582 233.423) rotate(-87.075)" style="         fill: #ffdc83;       "/>
      </g>
    </g>
    <g id="Path-11-6-i3">
      <path d="M77.985,206.62c-28.451,0-54.083-1.776-76.191-5.279a1,1,0,1,1,.314-1.975c22,3.486,47.533,5.254,75.876,5.254H78c29.288,0,55.557-1.887,78.075-5.607a1,1,0,0,1,.327,1.973c-22.627,3.738-49,5.633-78.4,5.634Z" style="         fill: #ffdc83;       "/>
    </g>
    <g id="Path-11-7-i3">
      <path d="M78.381,256.816h-.017c-28.757,0-54.633-1.815-76.909-5.391a1,1,0,1,1,.317-1.975c22.171,3.56,47.941,5.365,76.592,5.366h.017c29.283,0,55.545-1.887,78.058-5.608a1,1,0,0,1,.326,1.974C134.147,254.92,107.771,256.816,78.381,256.816Z" style="         fill: #ffdc83;       "/>
    </g>
    <g id="Path-11-8-i3">
      <path d="M78.381,299.536h-.017c-29.022,0-55.1-1.848-77.524-5.491a1,1,0,1,1,.321-1.974c22.314,3.626,48.289,5.465,77.2,5.465h.017c29.284,0,55.545-1.887,78.058-5.608a1,1,0,1,1,.326,1.973C134.147,297.64,107.772,299.536,78.381,299.536Z" style="         fill: #ffdc83;       "/>
    </g>
    <g id="Group-4-i3">
      <g id="Rectangle-3-i3">
        <path d="M174.513,210.24,324.172,181.5a3.681,3.681,0,0,1,4.351,3.2l15.829,141.476c-23.858,6.08-139.113,10.407-170.843,4.153Z" style="         fill: #f8a036;       "/>
      </g>
      <g id="Oval-15-i3">
        <ellipse cx="251.36" cy="196.074" rx="77.877" ry="6.663" transform="translate(-32.576 51.135) rotate(-10.913)" style="         fill: #ffdc83;       "/>
      </g>
      <g id="Oval-15-2-i3" data-name="Oval-15">
        <ellipse cx="249.667" cy="196.151" rx="32.947" ry="2.819" transform="translate(-32.621 50.816) rotate(-10.913)" style="         fill: #f8a036;       "/>
      </g>
    </g>
    <g id="Path-11-4-i3">
      <path d="M211.375,255.43c-13.235,0-25.654-.518-37.176-1.555a1,1,0,0,1,.18-1.992c23.2,2.088,50.084,2.062,79.911-.075s56.441-5.946,79.106-11.32a1,1,0,0,1,.461,1.946c-22.769,5.4-49.491,9.224-79.424,11.369C239.3,254.887,224.91,255.43,211.375,255.43Z" style="         fill: #ffdc83;       "/>
    </g>
    <g id="Path-11-5-i3">
      <path d="M279.853,304.263q-10.742,0-22.049-.347c-31.325-.962-59.373-3.729-83.364-8.225a1,1,0,1,1,.368-1.965c23.89,4.476,51.835,7.232,83.057,8.191,30.926.95,58.755-.058,82.713-2.995a1,1,0,0,1,.243,1.986A505.673,505.673,0,0,1,279.853,304.263Z" style="         fill: #ffdc83;       "/>
    </g>
  </g>
</g></g></g><!--ITEM 4--><g><defs><clipPath id="clip-path-id-viewbox-item-4"><rect x="0.0" y="0.0" width="1376.762" height="942.213"/></clipPath></defs><g transform="translate(326.0 107.0) rotate(0.0 695.0 476.0) scale(1.0096153147748121 1.0103872478940537)"><g clip-path="url(#clip-path-id-viewbox-item-4)" transform="translate(-0.0 -0.0)"><g>
    <g id="Group-4-2-i4">
      <g id="Group-6-3-i4">
        <g id="Path-33-i4">
          <path d="M255.156,809.365c-12.763,67.481-59.171,82.605-73.095,88.422-46.6,19.472-87.986,2.749-95.137,0C54.438,936.181,49.8,943.275,35.288,942.094c-16.279-1.319-2.084-15.407,6.67-37.16-1.665.17-37.433,4.758-41.188-3.723-4.592-10.385,12.615-14.616,18.19-18.463-9.983-1.769-15.426.415-15.687-7.445-.3-9.175,40.769-26.062,117.592-47.9,5.121-1.456,29.132-16.621,34.506-18.044Z" style="         fill: #d1a7db;       "/>
        </g>
        <g id="Path-34-i4">
          <path d="M40.923,910.674a.875.875,0,0,1-.781-1.268c1.225-2.44,2.242-4.6,3.226-6.688,3.305-7.015,5.693-12.085,11.6-18.223a63.212,63.212,0,0,1,31.254-17.4.875.875,0,0,1,.385,1.707,61.458,61.458,0,0,0-30.385,16.911c-5.7,5.924-8.037,10.884-11.271,17.749-.942,2-2.01,4.267-3.246,6.728A.875.875,0,0,1,40.923,910.674Z" style="         fill: #403838;       "/>
        </g>
        <g id="Path-35-i4">
          <path d="M21.688,882.675a.875.875,0,0,1-.48-1.608,178.717,178.717,0,0,1,56.9-24.4.875.875,0,0,1,.4,1.7,176.964,176.964,0,0,0-56.341,24.164A.863.863,0,0,1,21.688,882.675Z" style="         fill: #403838;       "/>
        </g>
        <g id="Path-36-i4">
          <path d="M41.309,936.612a5.838,5.838,0,0,1-4.077-1.43c-1.5-1.384-2.322-3.961-2.207-6.893.133-3.416,1.482-6.539,3.519-8.148,2.371-1.872,5.88-1.908,9.386-.093,3.532,1.829,5.9,4.914,5.764,7.5h0c-.172,3.24-4.2,6.583-7.894,8.083A12.115,12.115,0,0,1,41.309,936.612Zm1.59-16.151a5.178,5.178,0,0,0-3.27,1.054c-1.648,1.3-2.742,3.922-2.856,6.842-.1,2.427.522,4.5,1.648,5.541,1.335,1.237,3.848,1.279,6.721.113,3.638-1.475,6.691-4.415,6.805-6.554h0c.1-1.863-1.974-4.38-4.822-5.855A9.33,9.33,0,0,0,42.9,920.461Z" style="         fill: #403838;       "/>
        </g>
        <g id="Path-37-i4">
          <path d="M14.862,898.879a10.75,10.75,0,0,1-4.058-.7,3.377,3.377,0,0,1-2.382-3.013c-.029-3.041,5-7.624,8.821-8.039a4.788,4.788,0,0,1,5.005,2.932c1.1,2.381.692,5.339-.942,6.881h0C19.917,898.251,17.318,898.879,14.862,898.879Zm2.97-10.035a3.727,3.727,0,0,0-.4.022c-3.084.335-7.278,4.3-7.259,6.283,0,.571.448,1.048,1.317,1.419,2.517,1.071,7.026.6,8.615-.9h0a4.482,4.482,0,0,0,.555-4.877A3.077,3.077,0,0,0,17.832,888.844Z" style="         fill: #403838;       "/>
        </g>
        <g id="Path-38-i4">
          <path d="M12.979,876.6a10.029,10.029,0,0,1-3.6-.61,3.4,3.4,0,0,1-2.476-2.9c-.113-2.811,4.086-6.746,7.49-7.019a4.475,4.475,0,0,1,4.488,2.83c.992,2.181.7,4.749-.693,6.107h0C17.069,876.092,15,876.6,12.979,876.6Zm1.8-8.8c-.078,0-.158,0-.24.01-2.562.205-5.95,3.5-5.881,5.2.028.674.763,1.107,1.375,1.351,2.173.865,5.741.549,6.94-.616.854-.833,1-2.646.321-4.129A2.8,2.8,0,0,0,14.777,867.8Zm2.8,6.575h0Z" style="         fill: #403838;       "/>
        </g>
      </g>
    </g>
    <g id="Path-i4">
      <path d="M882.855,85.543c3.556-4.118,6.519-10.754,10.634-18.2,4.817-8.72,13.41-18.273,13.353-27.876-.137-23.2-10.916-36.284-2.154-39.063s26.324,8.971,32.549,29.424c4.7,15.426,5.331,35.113-3.741,64.127a276.6,276.6,0,0,1-23.49,54.578c-3.857,3.683-9.348,17.08-13.438,20.853L812.8,151.342c1.951-12.248-2.327-25.629,3.792-36.394,9.531-25.223,33.861-19.976,59.792-25.216" style="         fill: #d1a7db;       "/>
    </g>
    <g id="Path-2-i4">
      <path d="M895.182,64.772a1,1,0,0,1-.753-1.657c4.5-5.161,8.613-13.814,10.357-19.694a29.582,29.582,0,0,0-.515-18.411,1,1,0,0,1,1.9-.63,31.474,31.474,0,0,1,.534,19.61c-1.8,6.087-6.083,15.062-10.766,20.439A1,1,0,0,1,895.182,64.772Z" style="         fill: #403838;       "/>
    </g>
    <g id="Path-4-i4">
      <path d="M828.573,147.207c-8.982-7.179-24.352-31.523-29.954-58.307-5.026-24.034-3.42-49.217,7.776-50.341,20.629-2.076,11.536,20.211,29.785,47.493,12.978,19.4,20.42,16.794,32.6,24.479C854.962,113.971,842.387,143.767,828.573,147.207Z" style="         fill: #d1a7db;       "/>
    </g>
    <g id="Oval-i4">
      <ellipse cx="882.821" cy="62.681" rx="14.5" ry="30.402" transform="translate(745.298 936.975) rotate(-85.122)" style="         fill: #d1a7db;       "/>
    </g>
    <g id="Path-6-i4">
      <path d="M872.983,63.589a17.059,17.059,0,0,1-9.256-3.191c-2.042-1.592-2.28-3.049-2.118-3.99a5.026,5.026,0,0,1,2.484-3.133,12.35,12.35,0,0,1,8.964-1.739,6.754,6.754,0,0,1,5.022,6.132c.207,2.529-.842,4.685-2.673,5.493A6.084,6.084,0,0,1,872.983,63.589ZM870.87,53.025a11.442,11.442,0,0,0-5.823,1.718,3.538,3.538,0,0,0-1.713,1.959c-.154.9.855,1.837,1.469,2.316,2.7,2.1,7.875,3.433,9.9,2.542h0c1.121-.494,1.778-2,1.635-3.748a4.987,4.987,0,0,0-3.713-4.58A7.078,7.078,0,0,0,870.87,53.025Z" style="         fill: #403838;       "/>
    </g>
    <g id="Path-7-i4">
      <path d="M800.17,64.647a.875.875,0,0,1-.62-1.493c4.1-4.107,6.724-16.056,5.15-20.194a.875.875,0,0,1,1.636-.622c1.953,5.136-1.209,17.708-5.547,22.052A.869.869,0,0,1,800.17,64.647Z" style="         fill: #403838;       "/>
    </g>
    <g id="Path-2-2-i4" data-name="Path">
      <path d="M836.5,149.319c-8.041-13.534-9.239-28.72-2.053-38.358,7.064-9.471,19.871-10.423,30.441-11.207,16.137-1.2,22.473,12.312,18.647,38.148C862.105,152.266,857.933,134.955,836.5,149.319Z" style="         fill: #ae75bc;       "/>
    </g>
    <g id="Path-3-i4" data-name="Path">
      <path d="M866.167,72.634c13.64-6.352,27.17-6.154,30.218.441s19.842,38.081,6.2,44.433c-3.857,1.8-6.861,27.052-13.378,25.4-6.595-1.676-6.124-37.161-12.242-41.282-9.212-6.206-27.374,2.395-29.978-5.544C844.723,89.175,852.527,78.987,866.167,72.634Z" style="         fill: #d1a7db;       "/>
    </g>
    <g id="Path-4-2-i4" data-name="Path">
      <path d="M882.509,117.454a.877.877,0,0,1-.834-.608l-3.933-12.291a5.539,5.539,0,0,0-5.287-3.846l-13.58.687a21.982,21.982,0,0,1-8.661-1.3l-1.8-.65a.875.875,0,0,1,.6-1.646l1.8.65a20.247,20.247,0,0,0,7.977,1.2l13.626-.689a7.3,7.3,0,0,1,7,5.062l3.933,12.29a.875.875,0,0,1-.566,1.1A.86.86,0,0,1,882.509,117.454Z" style="         fill: #403838;       "/>
    </g>
    <g id="Path-9-i4">
      <path d="M852.418,96.331c-2.57,0-3.674-1.011-4.148-1.874a5.536,5.536,0,0,1,0-4.262c.789-2.356,2.877-5.45,5.6-6.675a6.582,6.582,0,0,1,7.5,1.668c1.81,1.877,2.431,4.346,1.546,6.143h0c-1.334,2.714-6.615,4.915-10.268,5C852.57,96.331,852.493,96.331,852.418,96.331Zm3.993-11.614a4.423,4.423,0,0,0-1.827.4,10.124,10.124,0,0,0-4.656,5.633,3.889,3.889,0,0,0-.124,2.864c.486.884,1.977.984,2.8.965,3.323-.075,7.814-2.142,8.738-4.02h0c.552-1.12.043-2.828-1.236-4.155A5.275,5.275,0,0,0,856.411,84.717Z" style="         fill: #403838;       "/>
    </g>
    <g id="Path-24-i4">
      <path d="M563.556,723.858l223.9-2.112" style="         fill: #fcf0e3;       "/>
    </g>
    <g id="Group-8-i4">
      <g id="Path-25-i4">
        <polygon points="812.093 902.597 994.231 902.597 1070.073 902.597 1054.121 792.529 995.92 786.286 801.933 765.48 812.093 902.597" style="         fill: #fcf0e3;       "/>
      </g>
      <g id="Path-5-i4" data-name="Path">
        <path d="M1025.085,809.877c-8.3,25.779-23.2,32.524-32.934,55.372-3.243,7.615-1.416,19.833,1.3,37.348.011.072,77.033.216,77.033.216l-16.361-110.284c-6.9-.824-25.637-3.085-25.641-2.751A70.127,70.127,0,0,1,1025.085,809.877Z" style="         fill: #eacaac;       "/>
      </g>
      <g id="Path-26-i4">
        <path d="M781.236,894.373a.875.875,0,0,1-.033-1.749l285.573-10.606a.875.875,0,1,1,.065,1.749L781.269,894.373Z" style="         fill: #403838;       "/>
      </g>
      <g id="Path-27-i4">
        <path d="M1063.679,860.82h0l-293.447-.567a.875.875,0,0,1,0-1.75h0l293.446.567a.875.875,0,0,1,0,1.75Z" style="         fill: #403838;       "/>
      </g>
      <g id="Path-28-i4">
        <path d="M1059.507,831.613h-.02L775.4,825.4a.875.875,0,0,1,.038-1.75l284.084,6.21a.875.875,0,0,1-.019,1.749Z" style="         fill: #403838;       "/>
      </g>
      <g id="Path-29-i4">
        <path d="M1055.335,806.58l-.053,0L780.724,790.131a.874.874,0,0,1-.821-.926.886.886,0,0,1,.925-.821l274.558,16.447a.875.875,0,0,1-.051,1.749Z" style="         fill: #403838;       "/>
      </g>
    </g>
    <g id="Path-30-i4">
      <path d="M1112.039,592.483C1097,582.429,940.382,594.536,924.755,602.73l201.869,227.8,86.456-90.622Z" style="         fill: #fcf0e3;       "/>
    </g>
    <g id="Path-6-2-i4" data-name="Path">
      <path d="M1038.249,731.226s-7.158-8.395-7.048-8.377c62.849,10.219,80.65,3.863,83.966-3.831,1.4-3.244,1.234-8.971,5.881-17.622,4.015-7.473,6.278-7.18,11.474-14.6,10.428-14.893,9.077-27.152,17.8-29.957a11.8,11.8,0,0,1,5.6-.324c.108.018,9.42,13.375,13.974,20.035L1213.08,739.7l-86.816,91.044Z" style="         fill: #eacaac;       "/>
    </g>
    <g id="Path-31-i4">
      <path d="M1142.953,813.881a.876.876,0,0,1-.665-.306l-174.9-204.266a.875.875,0,1,1,1.329-1.139l174.9,204.267a.875.875,0,0,1-.665,1.444Z" style="         fill: #403838;       "/>
    </g>
    <g id="Path-32-i4">
      <path d="M1161.331,792.326a.874.874,0,0,1-.682-.325L1000.116,593.447a.875.875,0,0,1,1.361-1.1L1162.01,790.9a.874.874,0,0,1-.679,1.425Z" style="         fill: #403838;       "/>
    </g>
    <g id="Path-39-i4">
      <path d="M1176.333,778.416a.873.873,0,0,1-.713-.366L1031.768,576.507a.875.875,0,0,1,1.425-1.016l143.851,201.542a.874.874,0,0,1-.711,1.383Z" style="         fill: #403838;       "/>
    </g>
    <g id="Path-40-i4">
      <path d="M1198.238,756.512a.876.876,0,0,1-.725-.384L1063.441,558.536a.875.875,0,0,1,1.448-.983l134.072,197.592a.876.876,0,0,1-.723,1.367Z" style="         fill: #403838;       "/>
    </g>
    <g id="Path-41-i4">
      <path d="M77.163,796.019c31.694,49.514,121.3,67.74,175.688,34.687C307.38,797.576,330.1,710.745,301.8,616.8a16.7,16.7,0,0,1-.227-3.086c.28-14.2,20.087-21.281,28.052-30.261,18.425-20.777,18.143-54.176,18.425-38.145.461,26.261-2.1,57.993,19.224,78,30.61,28.719,123.49-13.446,262.068-91.521,34.8-19.6,39.149-24.847,85.845-47.849,54.036-26.618,113.039-75.719,109.047-103.457-1.921-13.349-18.481-19.3-50.937-35.432-90.673-45.069-107.7-47.7-150.678-62.472C548.5,257.1,469.338,274.942,425.6,289.322,201.349,363.053,1.423,677.7,77.163,796.019Z" style="         fill: #5dace2;       "/>
    </g>
    <g id="Path-42-i4">
      <path d="M644.909,621.578c-21.276-.7-132.161-2.456-224.169,72.545-7.188,5.858-133.584,105.689-109.793,182.733,13.271,42.973,89.117,34.039,317.894,31.217,78.342-.965,175.247-2.364,286.767-4.442,4.414-17.5,13.489-65.121-15.226-111.785-37-60.132-121.546-93.946-212.328-83.655" style="         fill: #ffe3c3;       "/>
    </g>
    <g id="Path-43-i4">
      <path d="M753.7,348.631C726.152,330,771.139,201.943,810.337,192.464c2.926-.709,5.653-2.365,7.119-8.524,2.283-9.584-12.934-19.32-11.22-29.511,1.076-6.384,11.619-10.244,24.379-12.924,23.72-4.981,85.248-12.214,96.6,13.8,5.885,13.482-4.185,30.221-12.215,42.456-14.619,22.274,20.32,131.3-3.2,160.77C840.129,448.356,771.528,360.691,753.7,348.631Z" style="         fill: #5dace2;       "/>
    </g>
    <g id="Path-44-i4">
      <path d="M852.836,367.509c47.943-30.116,122.673-14.871,157.8,35.064q84.839,74.916,103.575,108.334c14.13,25.211-10.019,58.535-.134,76.165,6.98,12.451,18.529,30.705,32.492,55.607-4.518-1.907-46.26-13.493-77.538,3.9-28.709,15.963-42.973,40.653-40.526,72.619l-64.545-49.429q-47.586,5.87-61.753-4.637t-16.9-53.687L760.141,741.813,409.364,730.725l-4.2-100.176A33.968,33.968,0,0,1,429.309,596.6l163.583-49.222Z" style="         fill: #ffe3c3;       "/>
    </g>
    <g id="Path-2-2-i4">
      <path d="M186.871,866.437l8.092,24.46Q160,909.49,149.853,915.356C110.537,938.078,97.8,947.8,97.8,933.993c0-7.155,2.9-16.2,8.092-24.348,7.492-11.753,19.84-22.744,35.856-32.725Q154.05,869.261,186.871,866.437Z" style="         fill: #d1a7db;                fill-rule: evenodd;       "/>
    </g>
    <g id="Path-48-i4">
      <path d="M105.708,937.017a5.543,5.543,0,0,1-3.609-1.138,6.726,6.726,0,0,1-2-5.527,8.537,8.537,0,0,1,3.152-6.619c2.734-1.944,6.463-1.109,9.04.319,2.745,1.521,4.446,3.751,4.331,5.681h0c-.147,2.49-3.187,4.894-6.134,6.171A12.231,12.231,0,0,1,105.708,937.017Zm1.341-12.667a4.728,4.728,0,0,0-2.784.809,6.867,6.867,0,0,0-2.417,5.258,5.112,5.112,0,0,0,1.369,4.116c1.277,1.061,3.8.971,6.575-.234,2.813-1.22,5-3.227,5.083-4.669h0c.071-1.2-1.372-2.9-3.432-4.046A9.5,9.5,0,0,0,107.049,924.35Z" style="         fill: #403838;       "/>
    </g>
    <g id="Path-12-2-i4">
      <path d="M965.991,670.87a.874.874,0,0,1-.873-.839c-.774-18.651,7.827-37.92,25.563-57.273s39.273-29.183,63.979-29.185a.875.875,0,0,1,0,1.75c-24.2,0-45.287,9.631-62.689,28.618s-25.859,37.846-25.105,56.018a.875.875,0,0,1-.838.911Z" style="         fill: #403838;       "/>
    </g>
    <g id="Path-2-3-i4" data-name="Path-2">
      <path d="M885.678,611.908q2.112-15.843,12.673-30.628a66.776,66.776,0,0,1,26.4-22.179c-5.931-.088-14.919-.092-25.883.436-20.5.986-21.462,2.555-27.12,1.043-19.538-5.222-34.194-24.892-33.379-18.776,2.878,5.146,7.111,12.259,9.909,17.733a183.74,183.74,0,0,0,9.909,17.732c7.2,10.914,17.122,20.557,24.318,31.47Z" style="         fill: #eacaac;                fill-rule: evenodd;       "/>
    </g>
    <g id="Rectangle-7-i4">
      <path d="M892.29,773.5h49.086a8.77,8.77,0,0,1,8.726,8.814V894.778a8.773,8.773,0,0,1-8.575,8.815l-49.085.864a8.768,8.768,0,0,1-8.877-8.659V782.311A8.771,8.771,0,0,1,892.29,773.5Z" style="         fill: #ffe3c3;                fill-rule: evenodd;       "/>
    </g>
    <path d="M745.639,331.512a104.421,104.421,0,0,1,19.718,12.107c20.228,15.77,26.8,35.448,31.293,46.938-2.156-25.325-6.7-41.177-13.561-51.111-2.68-3.88-4.137-7.443-12.517-16.689a154.541,154.541,0,0,1-21.189-30.092,117.616,117.616,0,0,0-3.744,38.847Z" style="         fill: #3591ba;       "/>
    <path d="M817.514,180.077a139.051,139.051,0,0,0,26.074,8.122c22.222,4.579,38.541,2.192,38.594,3.13.057,1-18.69,4.439-41.723,3.128a178.626,178.626,0,0,1-26.726-3.556,19.479,19.479,0,0,0,2.746-4.088A17.689,17.689,0,0,0,817.514,180.077Z" style="         fill: #3f98c9;       "/>
    <path d="M407.579,680.535l.686,23.975a329.417,329.417,0,0,1,132.6-71.067c-4.876-3.155-12-6.558-19.59-5.063-7.737,1.525-10.6,7.082-16.689,11.474-12.613,9.1-26.785,4.346-42.766,4.173C448.888,643.886,431.2,666.2,407.579,680.535Z" style="         fill: #eacaac;       "/>
    <g id="Path-6-2-i4">
      <path d="M412.391,701.825a.875.875,0,0,1-.57-1.54c9.16-7.844,16.372-13.007,22.167-17.155,1.485-1.064,2.88-2.063,4.194-3.025,1.38-.935,2.744-1.868,4.118-2.809,7.034-4.811,14.307-9.787,21.708-13.682a.875.875,0,1,1,.816,1.549c-7.313,3.848-14.544,8.794-21.536,13.578q-2.064,1.412-4.1,2.794c-1.292.948-2.692,1.95-4.183,3.017-5.768,4.129-12.945,9.268-22.047,17.062A.87.87,0,0,1,412.391,701.825Z" style="         fill: #403838;       "/>
    </g>
    <path d="M114.851,829.538a62.839,62.839,0,0,0,20.886,23.37,70.782,70.782,0,0,0,17.582,7.944c19.063,5.446,55.74-3.968,95.712-28.027a269.467,269.467,0,0,1-32.412,7.478c-12.235,2.037-27.708,4.613-46.14,3.51A153.973,153.973,0,0,1,114.851,829.538Z" style="         fill: #ba87c6;       "/>
    <g id="Path-3-2-i4">
      <path d="M111.528,904.277a.875.875,0,0,1-.7-1.4c9.031-12.139,16.89-20.772,23.358-25.66,6.506-4.916,14.812-8.476,24.688-10.583a.875.875,0,1,1,.365,1.712c-9.624,2.053-17.7,5.507-24,10.267-6.336,4.788-14.077,13.3-23.008,25.308A.875.875,0,0,1,111.528,904.277Z" style="         fill: #403838;       "/>
    </g>
    <path d="M288.668,645.07c-7.784-1.074-8.584-10.148-18.776-20.862-13.6-14.3-29.5-19.95-28.365-19.446,11.605,5.15,27.322,6.929,27.322,6.929,16.6-.377,30.591-6,37.472-9.184.006,0-3.326,4.845-3.67,6.471-1.553,7.353,3.418,20.708,3.2,22.8-.02.191-.043.384-.043.384S297.187,646.245,288.668,645.07Z" style="         fill: #3591ba;       "/>
    <path d="M1029.121,700.226l-36.24-33.82a7.3,7.3,0,0,1-.414-10.318h0a7.3,7.3,0,0,1,10.317-.414l31.008,27.911Z" style="         fill: #eacaac;                fill-rule: evenodd;       "/>
    <path d="M1010.479,683.829a1,1,0,0,1-.682-.269l-17.6-16.423a8.3,8.3,0,0,1,11.264-12.2l12.329,11.377a1,1,0,0,1-1.356,1.47l-12.33-11.377a6.3,6.3,0,1,0-8.546,9.262l17.6,16.427a1,1,0,0,1-.682,1.731Z" style="         fill: #c6a589;       "/>
    <path d="M1047.733,662.725l-27.591-33.381a7.3,7.3,0,0,1,1.183-10.258h0a7.3,7.3,0,0,1,10.258,1.182l26.315,33.47Z" style="         fill: #eacaac;                fill-rule: evenodd;       "/>
    <path d="M1046.99,663.8a1,1,0,0,1-.78-.374l-26.848-33.458a8.3,8.3,0,1,1,13-10.323,1,1,0,1,1-1.566,1.243,6.3,6.3,0,0,0-9.875,7.833l26.844,33.453a1,1,0,0,1-.779,1.626Z" style="         fill: #c6a589;       "/>
    <path d="M1078.3,642.331,1058.428,605.8a7.3,7.3,0,0,1,2.925-9.9h0a7.3,7.3,0,0,1,9.9,2.925l22.42,39.549Z" style="         fill: #eacaac;                fill-rule: evenodd;       "/>
    <path d="M1087.806,629.01a1,1,0,0,1-.871-.507l-16.549-29.19a6.3,6.3,0,1,0-11.079,6.008l10.854,19.953a1,1,0,0,1-1.757.956l-10.854-19.954a8.3,8.3,0,0,1,14.585-7.934l16.54,29.175a1,1,0,0,1-.869,1.493Z" style="         fill: #c6a589;       "/>
    <path d="M949.983,879.764l.108,12.03-33.333,3.73a5.557,5.557,0,0,1-6.229-5.183h0a6.177,6.177,0,0,1,5.438-6.488Z" style="         fill: #eacaac;                fill-rule: evenodd;       "/>
    <path d="M949.983,838.7l-.019,11.777-33.286,1.373a5.566,5.566,0,0,1-5.816-5.649h0a6.17,6.17,0,0,1,5.834-6.129Z" style="         fill: #eacaac;                fill-rule: evenodd;       "/>
    <path d="M950.1,793.812l-.117,11.893L915.3,801.076a5.606,5.606,0,0,1-4.728-6.617h0a6.127,6.127,0,0,1,6.746-5.068Z" style="         fill: #eacaac;                fill-rule: evenodd;       "/>
    <path d="M1133.565,639.854l-17.962-2.586-16.771-36.546a7.3,7.3,0,0,1,3.547-9.7h0a7.3,7.3,0,0,1,9.7,3.547Z" style="         fill: #eacaac;                fill-rule: evenodd;       "/>
    <path d="M1133.566,640.855a1,1,0,0,1-.9-.572L1111.174,595a6.3,6.3,0,1,0-11.435,5.3l12.524,27.293a1,1,0,1,1-1.817.834l-12.522-27.288a8.3,8.3,0,0,1,15.06-6.99l21.485,45.277a1,1,0,0,1-.9,1.429Z" style="         fill: #c6a589;       "/>
    <path d="M795.606,391.433a.875.875,0,0,1-.852-.68A83.966,83.966,0,0,0,745.2,331.909a.875.875,0,0,1,.676-1.614,85.716,85.716,0,0,1,50.584,60.067.879.879,0,0,1-.854,1.071Z" style="         fill: #403838;       "/>
    <g>
      <g id="Path-49-i4">
        <path d="M1325.472,899.031c3.662-2.183,6.99-3.313,13.546-3.787a29.776,29.776,0,0,0,11.11-2.955c16.07-7.983,25-23.577,23.347-39.646l-1.043-7.3a39.748,39.748,0,0,0-17.986-29.477l-35.417-23.306-119.55-101.152a24.32,24.32,0,0,0-20.062-4.9l-27.692,5.329c-13.914,2.675-23.034,13.975-20.917,25.912l.192,1.085c1.125,6.349-1.361,12.768-6.7,17.321a26.791,26.791,0,0,1-20.423,5.792l-15.744-1.9c-9.373-1.133-33.517-4-40.871.154-9.656,8.138,1.66,15.814-.531,23.919l-8.187,30.3-7.483,27.688-4.126,4.193c-22.374,22.716-20.16,55.611,4.548,76.519,155.722.207,248.03.744,277.768.6A31.936,31.936,0,0,0,1325.472,899.031Z" style="         fill: #ffe3c3;       "/>
      </g>
      <g id="Path-51-i4">
        <path d="M1299.479,775.813c-1.4-3.758-10.6-16.162-28.971-33.493a88.318,88.318,0,0,0-33.352-39.829c-8.059-9.623-12.983-27.56-28.489-34.473-6.6-2.945-7.4-2.856-14.627-2.659l-28.194.513c-14.168.257-25.07,9.831-25.014,21.961l.006,1.1c.029,4.366-8.567,8.694-13.022,15.877a11.621,11.621,0,0,0,4.322,16.243l.175.1c10.166,11.661,27.491,16.214,30.459,19.881,7.275,8.991,13.881,8.331,24.57,16.007,1.507,1.726,3.83,7.379,12.981,14.243,5.661,4.247,17.732,10.431,18.747,11.474a58.357,58.357,0,0,0,6.847,5.777c34.878,29.633,61.251,23.187,75.568,14.888a12.72,12.72,0,0,0,6.669-9.048c.7-3.888,1.219-9.737-1.437-12.66C1306.717,781.714,1299.623,776.2,1299.479,775.813Z" style="         fill: #c7d94f;       "/>
      </g>
      <g>
        <line x1="1051.037" y1="787.532" x2="1060.674" y2="785.284" style="         fill: #bd9aa8;       "/>
        <path d="M1051.037,788.032a.5.5,0,0,1-.113-.987l9.636-2.248a.5.5,0,1,1,.228.973l-9.637,2.249A.5.5,0,0,1,1051.037,788.032Z" style="         fill: #fff;       "/>
      </g>
      <g>
        <line x1="1059.482" y1="793.526" x2="1066.832" y2="800.151" style="         fill: #bd9aa8;       "/>
        <path d="M1066.833,800.651a.493.493,0,0,1-.335-.129l-7.351-6.625a.5.5,0,0,1,.67-.743l7.351,6.626a.5.5,0,0,1-.335.871Z" style="         fill: #fff;       "/>
      </g>
      <g>
        <line x1="1053.416" y1="771.419" x2="1060.382" y2="778.448" style="         fill: #bd9aa8;       "/>
        <path d="M1060.382,778.948a.5.5,0,0,1-.355-.148l-6.966-7.029a.5.5,0,1,1,.71-.7l6.966,7.029a.5.5,0,0,1-.355.852Z" style="         fill: #fff;       "/>
      </g>
      <g id="Path-52-i4">
        <path d="M1151.54,715.876a.865.865,0,0,1-.468-.137.875.875,0,0,1-.271-1.207c8.193-12.915,19.771-21.954,32.6-25.454,23.933-6.525,41.07,2.728,56.031,13.7a.875.875,0,1,1-1.035,1.411c-14.608-10.712-31.328-19.751-54.535-13.421-12.409,3.384-23.626,12.157-31.584,24.7A.875.875,0,0,1,1151.54,715.876Z" style="         fill: #403838;       "/>
      </g>
      <g id="Path-53-i4">
        <path d="M1169.03,783.632a.875.875,0,0,1-.805-1.218c12.937-30.367,41.567-51.171,69.666-50.6,21.084.431,30.4,8.148,34.382,11.443.646.534,1.154.957,1.551,1.221a.875.875,0,0,1-.971,1.456c-.471-.315-1.011-.762-1.7-1.329-4.164-3.448-12.827-10.623-33.3-11.042q-.552-.01-1.1-.011c-27.032,0-54.424,20.221-66.918,49.548A.876.876,0,0,1,1169.03,783.632Z" style="         fill: #403838;       "/>
      </g>
      <g id="Path-54-i4">
        <path d="M1200.6,809.618a.876.876,0,0,1-.8-1.233c2.291-5.112,15.286-31.015,46.2-38.992,32.858-8.48,51.881,4.857,53.941,6.406a.875.875,0,0,1-1.051,1.4c-1.992-1.5-20.386-14.385-52.453-6.111-30.14,7.778-42.808,33.03-45.042,38.014A.876.876,0,0,1,1200.6,809.618Z" style="         fill: #403838;       "/>
      </g>
      <g id="Oval-17-i4">
        <ellipse cx="1143.93" cy="761.672" rx="7.612" ry="7.693" style="         fill: #403838;       "/>
      </g>
      <g id="Oval-18-i4">
        <ellipse cx="1167.093" cy="788.05" rx="7.612" ry="7.693" style="         fill: #403838;       "/>
      </g>
      <g id="Oval-19-i4">
        <ellipse cx="1196.281" cy="814.582" rx="7.612" ry="7.693" style="         fill: #403838;       "/>
      </g>
      <path d="M1047,762.643l27.316,14.309a13.244,13.244,0,0,1,7.1,11.731h0a13.242,13.242,0,0,1-2.746,8.075h0a29.46,29.46,0,0,1-20.217,11.33l-24.307,2.6Z" style="         fill: #ed6973;       "/>
      <path d="M1323.407,859.945c.771-1.535,9.387,15.646,9.387,15.646-20.689,2.086-42.265,3.537-64.671,4.173a917.154,917.154,0,0,1-254.766-28.989c.946-4.319,13.908-25.418,17.122-27.962,1.582-6.3,6.026-21,6.039-21,10.037-1.544,23.92-9.976,43.85-8.62,61.519,4.182,91.735,39.77,155.42,55.283C1253.2,852.713,1289.147,860.612,1323.407,859.945Z" style="         fill: #ae75bc;       "/>
      <g id="Path-50-i4">
        <path d="M1325.019,901.694l18.428-6.223c20.052-6.772,35.029-23.619,33.157-41.785l-1.043-8.344c-1.188-11.54-47.583.6-53.737,11.651-6.865,12.332-6.869,16.431-17.492,19.694-19.071,5.852-92.8-10.44-104.938-12.307-22.686-3.489-2.933-17.412-43.725-19.694-27.736-1.551-32.808,3.075-49.564-2.464-24.694-8.162-33.444-24.746-55.387-24.614a47.989,47.989,0,0,0-20.4,4.927l-4.136,4.192c-22.222,22.515-20.656,55.529,3.484,76.47.216.187,282.667.557,282.667.557a39.726,39.726,0,0,0,12.691-2.06Z" style="         fill: #403838;       "/>
      </g>
      <path d="M1158.634,714.8l-3.319-2.668a12.031,12.031,0,0,0-16.865,1.833l-5.786,7.2a8.268,8.268,0,0,0,1.26,11.589l9.168,7.37a8.267,8.267,0,0,0,11.589-1.259l5.786-7.2A12.029,12.029,0,0,0,1158.634,714.8Zm-6.059,12.843a6.78,6.78,0,1,1-4.42-8.509A6.78,6.78,0,0,1,1152.575,727.646Z" style="         fill: #ffe3c3;       "/>
      <path d="M1146.107,734.374a8.782,8.782,0,1,1,2.639-17.156,8.784,8.784,0,0,1-2.639,17.156Zm-.007-13.565a4.78,4.78,0,1,0,4.554,6.222h0a4.781,4.781,0,0,0-4.554-6.222Z" style="         fill: #f97381;       "/>
      <g id="Path-52-2-i4" data-name="Path-52">
        <path d="M1141.909,755.468a.875.875,0,0,1-.871-.8,66.774,66.774,0,0,1,6.341-33.829.875.875,0,1,1,1.58.752,64.99,64.99,0,0,0-6.177,32.928.874.874,0,0,1-.8.946C1141.96,755.467,1141.934,755.468,1141.909,755.468Z" style="         fill: #403838;       "/>
      </g>
    </g>
    <path d="M886.942,773.5a69.818,69.818,0,0,1,10.887,28.035,105.24,105.24,0,0,0-1.668-28.035Z" style="         fill: #eacaac;                fill-rule: evenodd;       "/>
    <path d="M899.791,904.327l-9.264.471,6.259-55.284c1.427,1.849,3.206,14.033,4.172,17.733,1.656,6.342,1.375,23.918,1.043,28.163A28.514,28.514,0,0,1,899.791,904.327Z" style="         fill: #eacaac;                fill-rule: evenodd;       "/>
    <g id="Path-13-2-i4">
      <path d="M889.825,905.333a.875.875,0,0,1-.854-1.072,319.739,319.739,0,0,0,5.623-31.611,158.824,158.824,0,0,0,.352-25.166.875.875,0,1,1,1.746-.115,160.586,160.586,0,0,1-.359,25.472,321.431,321.431,0,0,1-5.657,31.813A.875.875,0,0,1,889.825,905.333Z" style="         fill: #403838;       "/>
    </g>
    <path d="M1111.661,578.312a142.017,142.017,0,0,0-53.2,3.13c11.613-5.446,27.359-18.349,42.767-35.465a134.941,134.941,0,0,0,16.953-23.5,179.529,179.529,0,0,1-1.307,26.627C1115.649,559.006,1113.727,570.89,1111.661,578.312Z" style="         fill: #eacaac;                fill-rule: evenodd;       "/>
    <path d="M816.468,682.621c-9.388,8.344-30.82,37.436-30.249,30.249-49.24-13.557-93.24-22.557-176.24-3.557C625.295,685.9,752.3,659.863,795.3,652.863c34.9-5.681,75.413-62.034,90.017-41.172l-52.155,54.24Z" style="         fill: #eacaac;       "/>
    <g id="Path-45-i4">
      <path d="M885.153,611.925a.874.874,0,0,1-.653-.292,298.918,298.918,0,0,1-46.607-69.91.875.875,0,0,1,1.578-.757,297.2,297.2,0,0,0,46.333,69.5.874.874,0,0,1-.651,1.458Z" style="         fill: #403838;       "/>
    </g>
    <g id="Path-46-i4">
      <path d="M580.454,721.565a.875.875,0,0,1-.335-1.684A292.525,292.525,0,0,1,789.861,714.4a.875.875,0,0,1-.584,1.65A290.773,290.773,0,0,0,580.788,721.5.855.855,0,0,1,580.454,721.565Z" style="         fill: #403838;       "/>
    </g>
    <path d="M865.493,72.417c5.4-4.759,20.351-5.8,26.077-3.129,3.762,1.753,8.148,2.242,9.388,6.258.539,1.747,5.574,6.7,6.258,10.431.665,3.623-2.675,5.461-2.086,7.3-.43-1.747-4.239-15.363-14.6-20.862C883.478,68.677,868.029,72.061,865.493,72.417Z" style="         fill: #ae75bc;       "/>
    <path d="M912.809,56.271c2.268,1.862,4.347,5.718,3.812,8.641-.233,1.271,0,5.339-.794,7.9a43.007,43.007,0,0,0-1.309,5.86c.3-1.235-.625-12.437-4.172-18.775a22.859,22.859,0,0,0-7.212-7.746C902.7,51.871,904.408,49.376,912.809,56.271Z" style="         fill: #ae75bc;       "/>
    <g id="Path-8-i4">
      <path d="M904.687,95.275a.875.875,0,0,1-.859-.715c-2-10.731-5.525-17.321-11.106-20.74-6.043-3.7-14.831-3.773-26.863-.214a.875.875,0,1,1-.5-1.678c12.536-3.707,21.784-3.576,28.273.4,6.034,3.7,9.819,10.659,11.913,21.912a.875.875,0,0,1-.7,1.02A.885.885,0,0,1,904.687,95.275Z" style="         fill: #403838;       "/>
    </g>
    <g id="Path-5-2-i4" data-name="Path-5">
      <path d="M914.178,79.4a.838.838,0,0,1-.854-.737l-.008-.072c-2.205-18.645-3.118-26.362-20.1-27.519a.875.875,0,1,1,.119-1.746c18.428,1.256,19.527,10.548,21.717,29.059a.907.907,0,0,1-.762,1.008A.872.872,0,0,1,914.178,79.4Z" style="         fill: #403838;       "/>
    </g>
    <path d="M405.22,631.859c-4.185.723-25.741,2.954-35.88-6.794a63.3,63.3,0,0,1,13.205-12.331c13.966-9.7,30.462-11.232,37.551-11.474-2.482,2.061-9.568,6.783-12.517,14.6C405.069,622.521,405.307,631.844,405.22,631.859Z" style="         fill: #3591ba;       "/>
    <path d="M673.566,431.238c5.024,11.9,10.463,25.2,9.387,42.766a75.262,75.262,0,0,1-2.086,13.56c15.115-10.251,52.789-35.964,82.882-58.413,3.42-2.551,8.435-6.358,7.8-7.874-2.292-5.465-57.2,13.034-67.733,22.478-12.517-10.431-35.465-41.724-53.2-50.068A149.349,149.349,0,0,1,673.566,431.238Z" style="         fill: #3591ba;       "/>
    <path d="M429.479,317.813c-17.466,16.706-29.22,16.788-42.761,26.849-38.962,28.945-27.069,91.716-40.681,93.877-7.192,1.142-19.577-14.947-42.4-85.188a330.666,330.666,0,0,1,151.342-72.514C455.05,280.823,443,304.877,429.479,317.813Z" style="         fill: #3591ba;       "/>
    <path d="M343.752,489.891c1.5,1.432,35.23,31.214,25.233,68.6-4.012,15.008-13.1,25.025-18.775,30.249a108.566,108.566,0,0,1-2.731-18.93c-.349-6.347-.018-10.559.645-19.664,1.466-20.132,1.988-30.264,1.951-33.911C350.01,509.876,347.988,501.32,343.752,489.891Z" style="         fill: #3591ba;       "/>
    <g id="Path-5-2-2-i4" data-name="Path-5-2">
      <path d="M271.3,612.839a66.409,66.409,0,0,1-30.267-7.36.875.875,0,0,1,.8-1.559,64.178,64.178,0,0,0,64.608-3.309.875.875,0,1,1,.948,1.471A66.446,66.446,0,0,1,271.3,612.839Z" style="         fill: #403838;       "/>
    </g>
    <g id="Path-47-i4">
      <path d="M343.084,561.165a.854.854,0,0,1-.333-.067.874.874,0,0,1-.475-1.142,91.446,91.446,0,0,0,.063-70.146.875.875,0,0,1,1.618-.666,93.181,93.181,0,0,1-.063,71.479A.877.877,0,0,1,343.084,561.165Z" style="         fill: #403838;       "/>
    </g>
    <g id="Path-56-i4">
      <path d="M680.786,456.475a.875.875,0,0,1-.858-.708C674.7,429,662.313,406.6,643.122,389.206a135.943,135.943,0,0,0-36.606-23.629.875.875,0,1,1,.682-1.611,137.77,137.77,0,0,1,37.1,23.943c19.477,17.654,32.043,40.372,37.349,67.523a.875.875,0,0,1-.691,1.026A.889.889,0,0,1,680.786,456.475Z" style="         fill: #403838;       "/>
    </g>
    <g id="Path-7-2-i4">
      <path d="M643.56,388.882h-.04a.875.875,0,0,1-.835-.914c.3-6.612.342-12.318.133-16.959-.24-4.51-.906-11.552-1.977-20.923a.875.875,0,1,1,1.738-.2c1.076,9.406,1.744,16.483,1.987,21.036.212,4.7.167,10.459-.133,17.124A.875.875,0,0,1,643.56,388.882Z" style="         fill: #403838;       "/>
    </g>
    <g id="Path-7-2-i4" data-name="Path">
      <path d="M583.623,555.754a.876.876,0,0,1-.5-1.592l109.839-77.1a.875.875,0,0,1,1.006,1.433L584.125,555.6A.873.873,0,0,1,583.623,555.754Z" style="         fill: #403838;       "/>
    </g>
  </g>
</g></g></g><!--ITEM 5--><g><defs><clipPath id="clip-path-id-viewbox-item-5"><rect x="0.0" y="0.0" width="282.282" height="361.631"/></clipPath></defs><g transform="translate(518.0 203.0) rotate(0.0 141.0 180.5) scale(0.999000999000999 0.9982551274641832)"><g clip-path="url(#clip-path-id-viewbox-item-5)" transform="translate(-0.0 -0.0)"><g>
    <g id="Oval-25-i5">
      <ellipse cx="149.2" cy="89.821" rx="89.321" ry="89.239" transform="translate(57.687 237.989) rotate(-89.348)" style="         fill: #0e1049;       "/>
    </g>
    <g id="Path-8-2-i5">
      <path d="M70.951,63.589A433.792,433.792,0,0,1,48.47,137.61c-26.179,64.557-59.912,102.1-44.659,131.145,3.842,7.317,9.808,12.219,13.112,14.933,23.981,19.7,47.066,7.716,58.214,23.4,7.374,10.376,2.568,19.769,12.385,35.774a29.227,29.227,0,0,0,10.34,9.708c22.1,13.247,41.827,2.927,46.359.421s24.571-19.186,22.745-39.225q-1.826-20.038-38.8-41.343l3.868-18.724q43.543-28.468,69.056-39.963t66.156-25.92c14.359-44.829,19.175-73.661,11.195-94.448Q265.986,60.918,218.362,41.3Z" style="         fill: #0e1049;                fill-rule: evenodd;       "/>
    </g>
    <g id="Path-i5">
      <path d="M123.178,143.9a202.68,202.68,0,0,1,11.633,50.86,202.8,202.8,0,0,1-3,59A515.616,515.616,0,0,1,267.18,188.087c4.153-11.279,13.715-41.951,2.631-77.332-3.544-11.311-12.778-40.787-33.234-49.077C207.865,50.042,158.442,80.71,123.178,143.9Z" style="         fill-rule: evenodd;                fill: #04071c;       "/>
    </g>
    <g id="Oval-24-i5">
      <circle cx="134.164" cy="313.576" r="48.054" style="         fill: #0e1049;       "/>
    </g>
    <g id="Path-10-2-i5">
      <path d="M145.164,276.6a1,1,0,0,1-.581-1.815c12.59-8.976,18.738-16.8,18.271-23.24-.305-4.187-2.58-8.1-6.579-11.324-7.224-5.819-18.874-8.245-31.166-6.488a1,1,0,1,1-.283-1.98c13.021-1.861,24.941.658,32.7,6.91,4.378,3.527,6.977,8.05,7.319,12.737.528,7.29-5.722,15.472-19.1,25.014A1,1,0,0,1,145.164,276.6Z" style="         fill: #0e1049;       "/>
    </g>
    <g id="Path-10-3-i5">
      <path d="M154.792,343.856a1,1,0,0,1-.484-1.876c23.731-13.074,35.389-28.822,34.652-46.806-.294-7.159-4.962-19.128-17.153-29.3-10.695-8.925-29.832-18.669-60.261-14.409a1,1,0,1,1-.278-1.98c31.154-4.363,50.814,5.67,61.82,14.853,10.447,8.717,17.461,20.788,17.87,30.753.771,18.805-11.235,35.17-35.685,48.639A.987.987,0,0,1,154.792,343.856Z" style="         fill: #0e1049;       "/>
    </g>
    <g id="Path-9-2-i5">
      <path d="M14.687,274.736a1,1,0,0,1-.922-.611C6.2,256.175,3.248,238.656,5,222.054,7.345,199.871,17.1,184.416,28.385,166.52c10.879-17.245,23.21-36.79,30.943-66.5a205.412,205.412,0,0,0,5.026-26.149,1,1,0,1,1,1.985.249,207.633,207.633,0,0,1-5.075,26.4c-7.813,30.01-20.231,49.695-31.188,67.063C18.92,185.271,9.285,200.544,6.991,222.264c-1.718,16.262,1.182,33.449,8.617,51.084a1,1,0,0,1-.921,1.388Z" style="         fill: #0e1049;       "/>
    </g>
    <g id="Oval-2-2-i5">
      <ellipse cx="226.501" cy="57.239" rx="17.17" ry="17.154" transform="translate(166.687 283.074) rotate(-89.348)" style="         fill: #ae75bc;       "/>
    </g>
    <g id="Oval-25-2-i5" data-name="Oval-25">
      <ellipse cx="149.7" cy="89.321" rx="89.321" ry="89.239" transform="translate(58.681 237.994) rotate(-89.348)" style="         fill: #0e1049;       "/>
    </g>
    <g id="Combined-Shape-i5">
      <path d="M111.967,50.583c-25.247,32.241-24.206,75.25.624,94.726,2.762,2.166-13.013,6.993-13.013,6.993l10.38,7.655a93.412,93.412,0,0,0,106.683,2.958,71.568,71.568,0,0,0,21.253-18.342c21.771-27.8,19.782-65.746-4.443-84.748A49.1,49.1,0,0,0,219.9,52.3a47,47,0,0,0-15.879-23.752C179.193,9.077,137.218,18.338,111.967,50.583Z" style="         fill-rule: evenodd;                fill: #d1a7db;       "/>
    </g>
    <g id="Combined-Shape-2-i5">
      <path d="M162.1,178.212a93.54,93.54,0,0,0,24.531-2.127c2.987-.667,52.477-12.483,65-53,1.41-4.56,5.385-18.036,1-34,0,0-4.307-15.758-16.268-27.379-.714-.694-1.307-1.236-1.732-1.621a61.422,61.422,0,0,0-15-10,23.338,23.338,0,0,0-2-7.036,26.064,26.064,0,0,0-4-5.964c-1.768-2.154-2.126-2.168-9.977-8.656-.759-.628-2.586-2.14-3.547-1.59-.033.019-.059.037-.076.049,1.73,1.262,8.763,6.5,13.6,13.2a37.662,37.662,0,0,1,5,9c.467,1.22.79,2.262,1,3,4.688,3.485,18.721,14.857,22.464,34.173,2.754,14.219-1.6,25.518-3.595,31.328C223.243,161.922,169.147,176.43,162.1,178.212Z" style="         fill-rule: evenodd;                fill: #ae75bc;       "/>
    </g>
    <g id="Path-11-11-i5">
      <path d="M199.7,101.651a.877.877,0,0,1-.846-1.1l2.037-7.672a3.982,3.982,0,0,0-.614-3.339,3.47,3.47,0,0,0-2.827-1.455l-3.123.045a.861.861,0,0,1-.887-.863.875.875,0,0,1,.863-.887l3.122-.044a5.26,5.26,0,0,1,4.266,2.173,5.75,5.75,0,0,1,.891,4.819L200.541,101A.875.875,0,0,1,199.7,101.651Z" style="         fill: #403838;       "/>
    </g>
    <g id="Rectangle-2-2-i5">
      <path d="M187.732,43.294a6.385,6.385,0,0,0-3.209,3.691,5.912,5.912,0,0,0,.465,4.739,6.428,6.428,0,0,0,3.873,3.011,6.914,6.914,0,0,0,5.005-.482l14.728-7.493a6.394,6.394,0,0,0,3.211-3.692,5.923,5.923,0,0,0-.467-4.74,6.324,6.324,0,0,0-3.845-3,6.969,6.969,0,0,0-5.026.476Z" style="         fill: #0e1049;                fill-rule: evenodd;       "/>
    </g>
    <g id="Path-55-i5">
      <path d="M215.173,102.9a54.151,54.151,0,0,1-25.034,16.69c4.5,8.085,17.381,11.706,23.982,6.869C220.332,121.907,220.565,109.72,215.173,102.9Z" style="         fill: #fff;       "/>
    </g>
    <g id="Path-2-i5" data-name="Path">
      <path d="M100.9,129.138c7.843-5.536,47.665-34.77,50.261-81.9.295-5.349.915-12.057,1.24-18.537.047-.938,55.508,5.193,55.54,4.27.223-6.3-52.172-20.168-63.213-21.9Z" style="         fill: #ae75bc;       "/>
    </g>
    <g id="Path-13-3-i5">
      <path d="M151.1,12.921c-1.152,12.947-6.556,35.73-14.5,58.795S109.44,120.334,87.32,148.721q-27.063-33.707-18.346-69.46C74.78,55.428,105.8,31.284,151.1,12.921Z" style="         fill: #0e1049;                fill-rule: evenodd;       "/>
    </g>
    <g id="Oval-7-2-i5">
      <ellipse cx="98.931" cy="149.439" rx="19.621" ry="19.661" transform="translate(-67.656 83.348) rotate(-34.855)" style="         fill: #d1a7db;       "/>
    </g>
    <g id="Path-9-3-i5">
      <path d="M100.459,163.834c-6.039,0-10.669-2.222-13.789-6.629-3.629-5.123-3.65-10.967-.062-17.37a.875.875,0,1,1,1.527.855c-3.275,5.844-3.287,10.915-.037,15.5,3.265,4.61,8.213,6.485,15.141,5.734a.875.875,0,1,1,.188,1.74A27.559,27.559,0,0,1,100.459,163.834Z" style="         fill: #403838;       "/>
    </g>
    <g id="Rectangle-8-i5">
      <path d="M140.4,65.4,121.136,76.657a7.158,7.158,0,0,0-2.578,9.809h0a7.147,7.147,0,0,0,4.377,3.312,7.235,7.235,0,0,0,5.461-.748l19.263-11.256a7.154,7.154,0,0,0,2.578-9.811h0a7.146,7.146,0,0,0-4.377-3.313,7.23,7.23,0,0,0-5.461.75Z" style="         fill: #0e1049;                fill-rule: evenodd;       "/>
    </g>
    <g id="Path-15-2-i5">
      <path d="M129.012,15.692q26.235,7,39.993,9.844T211.1,32.658L199.315,22.1C180.287,5.052,152.3,2.506,129.012,15.692Z" style="         fill: #0e1049;                fill-rule: evenodd;       "/>
    </g>
    <g>
      <path d="M164.632,107.085a12.758,12.758,0,0,1-13-12.5,12.039,12.039,0,0,1,.976-4.744,37.281,37.281,0,0,0-5.727,2.633c-10.512,5.945-16.286,15.621-12.9,21.612s14.656,6.029,25.167.084a34.492,34.492,0,0,0,9.418-7.672A13.47,13.47,0,0,1,164.632,107.085Z" style="         fill: #fff;       "/>
      <path d="M152.608,89.841a12.039,12.039,0,0,0-.976,4.744,12.758,12.758,0,0,0,13,12.5,13.47,13.47,0,0,0,3.937-.587c4.086-4.869,5.627-10.144,3.479-13.941C169.273,87.65,161.21,86.744,152.608,89.841Z" style="         fill: #2b2929;       "/>
    </g>
    <g>
      <path d="M221.579,69.989a12.248,12.248,0,0,1-13.1-11.32,11.566,11.566,0,0,1,.692-4.6,35.823,35.823,0,0,0-5.355,2.817C194.041,63.123,189,72.694,192.554,78.265s14.358,5.032,24.132-1.2a33.138,33.138,0,0,0,8.637-7.836A12.925,12.925,0,0,1,221.579,69.989Z" style="         fill: #fff;       "/>
      <path d="M209.17,54.071a11.566,11.566,0,0,0-.692,4.6,12.248,12.248,0,0,0,13.1,11.32,12.925,12.925,0,0,0,3.744-.764c3.668-4.876,4.876-10.012,2.624-13.542C225.036,51.12,217.259,50.663,209.17,54.071Z" style="         fill: #2b2929;       "/>
    </g>
  </g>
</g></g></g><!--ITEM 6--><g><defs><clipPath id="clip-path-id-viewbox-item-6"><rect x="0.0" y="0.0" width="180.5" height="144.447"/></clipPath></defs><g transform="translate(936.0 884.0) rotate(0.0 90.0 72.0) scale(0.997229916897507 0.9969054393653035)"><g clip-path="url(#clip-path-id-viewbox-item-6)" transform="translate(-0.0 -0.0)"><g id="Group-10-2-i6">
    <g id="Group-8-2-i6">
      <g id="Rectangle-6-i6">
        <path d="M1.318,6.134H155.375a1.734,1.734,0,0,1,1.733,1.734L180.5,140.379c-18.307,1.017-65.089,4.068-101.7,4.068-38.646,0-64.071-1.017-77.474-2.737Q1.322,73.922,1.318,6.134Z" style="         fill: #f8a036;       "/>
      </g>
      <g id="Oval-20-i6">
        <ellipse cx="79.211" cy="6.675" rx="77.893" ry="6.675" style="         fill: #ffdc83;       "/>
      </g>
      <g id="Oval-20-2-i6" data-name="Oval-20">
        <ellipse cx="80.738" cy="6.045" rx="50.945" ry="2.962" style="         fill: #f8a036;       "/>
      </g>
    </g>
    <g id="Path-11-9-i6">
      <path d="M107.522,59.577q-11.874,0-24.462-.448c-30.822-1.1-58.409-3.99-81.995-8.6a1,1,0,1,1,.384-1.963c23.482,4.588,50.964,7.468,81.682,8.562s58.336.176,82.085-2.727a1,1,0,1,1,.243,1.985A481.5,481.5,0,0,1,107.522,59.577Z" style="         fill: #ffdc83;       "/>
    </g>
    <g id="Path-11-10-i6">
      <path d="M8.535,111.185q-3.834,0-7.554-.07a1,1,0,1,1,.037-2c24.942.468,53.7-1.433,85.5-5.652s60.058-9.885,84.01-16.841a1,1,0,1,1,.557,1.92c-24.048,6.984-52.411,12.672-84.3,16.9C58.045,109.259,31.766,111.185,8.535,111.185Z" style="         fill: #ffdc83;       "/>
    </g>
  </g>
</g></g></g><!--ITEM 7--><g><defs><clipPath id="clip-path-id-viewbox-item-7"><rect x="0.0" y="0.0" width="169.465" height="202.906"/></clipPath></defs><g transform="translate(814.0 824.0) rotate(0.0 84.5 101.0) scale(0.997256070575045 0.9955348782194711)"><g clip-path="url(#clip-path-id-viewbox-item-7)" transform="translate(-0.0 -0.0)"><g id="Group-3-3-i7">
    <g id="Group-9-i7">
      <g id="Oval-21-i7">
        <path d="M113.092,2.034c40.846,11.4,64,69.745,54.091,116.385-10.237,48.186-56.616,87.153-96.734,84.344a60.317,60.317,0,0,1-17.928-4.123c-3.932-3.9-47.95-49.11-36.163-112.263C25.665,36.509,63.23,10.486,70.521,5.64,81.238,1.4,96.792-2.517,113.092,2.034Z" style="         fill: #ffdc83;       "/>
      </g>
      <g id="Oval-22-i7">
        <ellipse cx="75.441" cy="102.115" rx="99.293" ry="74.164" transform="translate(-40.121 154.689) rotate(-78.006)" style="         fill: #f8a036;       "/>
      </g>
      <g id="Oval-23-i7">
        <path d="M95.3,29.231c24.125,7.315,29.8,47.994,17.9,87.219s-41.093,65.094-65.218,57.779-34.04-45.044-22.146-84.27S71.178,21.916,95.3,29.231Z" style="         fill: #ffdc83;       "/>
      </g>
    </g>
  </g>
</g></g></g><!--ITEM 8--><g><defs><clipPath id="clip-path-id-viewbox-item-8"><rect x="0.0" y="0.0" width="71.393" height="71.393"/></clipPath></defs><g transform="translate(1161.0 36.0) rotate(0.0 54.0 54.0) scale(1.512753351168882 1.512753351168882)"><g clip-path="url(#clip-path-id-viewbox-item-8)" transform="translate(-0.0 -0.0)"><g id="Star-i8">
    <polygon points="41.41 41.41 35.696 71.393 29.984 41.41 0 35.697 29.984 29.984 35.697 0 41.41 29.984 71.393 35.696 41.41 41.41" style="         fill: #ffeddc;         fill-rule: evenodd;       "/>
  </g>
</g></g></g></svg>